0
SECTION
2
HEADER
9
$INSUNITS
70
4
0
ENDSEC
0
SECTION
2
TABLES
0
TABLE
2
LTYPE
0
LTYPE
72
65
70
64
2
CONTINUOUS
3
______
73
0
40
0
0
ENDTAB
0
TABLE
2
LAYER
0
ENDTAB
0
ENDSEC
0
SECTION
2
ENTITIES
0
LINE
8
0
10
1.6808073
20
-15.0508268
11
20.2227068
21
-24.9097295
0
LINE
8
0
10
22.9275451
20
-24.0827776
11
26.9147427
21
-16.5839494
0
LINE
8
0
10
0.8538554
20
-12.3459885
11
6.7457235
21
-1.2649962
0
LINE
8
0
10
20.3603988
20
24.340484
11
28.5996247
21
39.8362143
0
LINE
8
0
10
31.304463
20
40.6631663
11
49.0846982
21
31.2092476
0
LINE
8
0
10
29.7990236
20
-15.8648174
11
41.7835982
21
-23.948515
0
LINE
8
0
10
44.5600591
20
-23.4088257
11
45.2271472
21
-22.4198269
0
LINE
8
0
10
59.6588812
20
40.1068068
11
76.989599
21
28.4170901
0
LINE
8
0
10
56.8824203
20
39.5671175
11
51.6817165
21
31.856757
0
LINE
8
0
10
48.1707976
20
-22.0061238
11
54.6867782
21
-27.4736808
0
LINE
8
0
10
88.8524276
20
26.2291354
11
83.7177075
21
30.5376772
0
LINE
8
0
10
80.9000434
20
30.2911635
11
79.6400736
21
28.78959
0
LINE
8
0
10
53.8942303
20
-34.6410978
11
59.3943227
21
-39.2562232
0
LINE
8
0
10
54.9332918
20
-30.2913449
11
53.6477167
21
-31.8234337
0
LINE
8
0
10
46.6977358
20
-53.6614869
11
57.779249
21
-69.4875279
0
LINE
8
0
10
50.5156673
20
-48.5465932
11
59.2559003
21
-42.4266162
0
LINE
8
0
10
50.2879331
20
-48.7060544
11
47.188887
21
-50.8760299
0
LINE
8
0
10
71.0312071
20
-87.9565783
11
70.8166249
21
-88.1068304
0
LINE
8
0
10
70.8166249
20
-88.1068304
11
70.776365
21
-88.0493333
0
LINE
8
0
10
58.0203301
20
-69.9506406
11
64.6452701
21
-88.1525137
0
LINE
8
0
10
67.2086955
20
-89.3478587
11
70.776365
21
-88.0493333
0
LINE
8
0
10
71.0312071
20
-87.9565783
11
88.4902396
21
-81.6020102
0
LINE
8
0
10
50.2879331
20
-48.7060544
11
50.2633231
21
-48.638439
0
LINE
8
0
10
50.2633231
20
-48.638439
11
50.5156673
21
-48.5465932
0
LINE
8
0
10
-7.3695899
20
8.5053892
11
5.9187715
21
1.4398422
0
LINE
8
0
10
4.3671992
20
30.5790789
11
17.6555604
21
23.513532
0
LINE
8
0
10
1.6623609
20
29.752127
11
-8.1965418
21
11.2102275
0
LINE
8
0
10
233.6751484
20
-24.9097295
11
252.2170479
21
-15.0508268
0
LINE
8
0
10
247.1521317
20
-1.2649962
11
253.0439998
21
-12.3459885
0
LINE
8
0
10
226.9831125
20
-16.5839494
11
230.9703101
21
-24.0827776
0
LINE
8
0
10
225.2982305
20
39.8362143
11
233.5374564
21
24.340484
0
LINE
8
0
10
204.813157
20
31.2092476
11
222.5933922
21
40.6631663
0
LINE
8
0
10
212.114257
20
-23.948515
11
224.0988316
21
-15.8648174
0
LINE
8
0
10
208.670708
20
-22.4198269
11
209.3377961
21
-23.4088257
0
LINE
8
0
10
202.2161387
20
31.856757
11
197.0154349
21
39.5671175
0
LINE
8
0
10
176.9082562
20
28.4170901
11
194.238974
21
40.1068068
0
LINE
8
0
10
199.211077
20
-27.4736808
11
205.7270576
21
-22.0061238
0
LINE
8
0
10
174.2577816
20
28.78959
11
172.9978118
21
30.2911635
0
LINE
8
0
10
170.1801477
20
30.5376772
11
165.0454276
21
26.2291354
0
LINE
8
0
10
194.5035325
20
-39.2562232
11
200.0036249
21
-34.6410978
0
LINE
8
0
10
200.2501385
20
-31.8234337
11
198.9645634
21
-30.2913449
0
LINE
8
0
10
196.1186062
20
-69.4875279
11
207.2001194
21
-53.6614869
0
LINE
8
0
10
206.7089682
20
-50.8760299
11
203.6099221
21
-48.7060544
0
LINE
8
0
10
194.6419549
20
-42.4266162
11
203.3821879
21
-48.5465932
0
LINE
8
0
10
183.1214902
20
-88.0493333
11
183.0812303
21
-88.1068304
0
LINE
8
0
10
183.0812303
20
-88.1068304
11
182.8666481
21
-87.9565783
0
LINE
8
0
10
189.2525851
20
-88.1525137
11
195.8775251
21
-69.9506406
0
LINE
8
0
10
165.4076156
20
-81.6020102
11
182.8666481
21
-87.9565783
0
LINE
8
0
10
183.1214902
20
-88.0493333
11
186.6891597
21
-89.3478587
0
LINE
8
0
10
203.3821879
20
-48.5465932
11
203.6345321
21
-48.638439
0
LINE
8
0
10
203.6345321
20
-48.638439
11
203.6099221
21
-48.7060544
0
LINE
8
0
10
247.9790837
20
1.4398422
11
261.2674451
21
8.5053892
0
LINE
8
0
10
262.094397
20
11.2102275
11
252.2354943
21
29.752127
0
LINE
8
0
10
236.2422948
20
23.513532
11
249.530656
21
30.5790789
0
LINE
8
0
10
90.1380028
20
25.7612243
11
163.7598524
21
25.7612243
0
LINE
8
0
10
164.7235753
20
-81.4813954
11
89.1742799
21
-81.4813954
0
ARC
8
0
10
21.1616499
20
-23.1438344
40
2
50
241.9999983
51
331.9999983
0
ARC
8
0
10
28.6806379
20
-17.5228926
40
2
50
56.000001
51
151.9999983
0
ARC
8
0
10
42.901984
20
-22.2904399
40
2
50
236.000001
51
326.000001
0
ARC
8
0
10
46.8852223
20
-23.5382127
40
2
50
49.9999988
51
146.000001
0
ARC
8
0
10
53.4012029
20
-29.0057696
40
2
50
319.9999988
51
49.9999988
0
ARC
8
0
10
55.1798055
20
-33.1090089
40
2
50
139.9999988
51
229.9999988
0
ARC
8
0
10
58.1087474
20
-40.7883121
40
2
50
304.9999997
51
49.9999988
0
ARC
8
0
10
48.3360399
20
-52.514334
40
2
50
124.9999997
51
214.9999997
0
ARC
8
0
10
56.1409448
20
-70.6346808
40
2
50
19.9999981
51
34.9999997
0
ARC
8
0
10
66.5246553
20
-87.4684735
40
2
50
199.9999981
51
289.9999981
0
ARC
8
0
10
89.1742799
20
-83.4813954
40
2
50
90
51
109.9999981
0
ARC
8
0
10
164.7235753
20
-83.4813954
40
2
50
70.0000019
51
90
0
ARC
8
0
10
187.3731999
20
-87.4684735
40
2
50
250.0000019
51
340.0000019
0
ARC
8
0
10
197.7569104
20
-70.6346808
40
2
50
145.0000003
51
160.0000019
0
ARC
8
0
10
205.5618153
20
-52.514334
40
2
50
325.0000003
51
55.0000003
0
ARC
8
0
10
195.7891078
20
-40.7883121
40
2
50
130.0000012
51
235.0000003
0
ARC
8
0
10
198.7180497
20
-33.1090089
40
2
50
310.0000012
51
40.0000012
0
ARC
8
0
10
200.4966523
20
-29.0057696
40
2
50
130.0000012
51
220.0000012
0
ARC
8
0
10
207.0126329
20
-23.5382127
40
2
50
33.999999
51
130.0000012
0
ARC
8
0
10
210.9958712
20
-22.2904399
40
2
50
213.999999
51
303.999999
0
ARC
8
0
10
225.2172173
20
-17.5228926
40
2
50
28.0000017
51
123.999999
0
ARC
8
0
10
232.7362053
20
-23.1438344
40
2
50
208.0000017
51
298.0000017
0
ARC
8
0
10
251.2781047
20
-13.2849316
40
2
50
298.0000017
51
28.0000017
0
ARC
8
0
10
248.9180269
20
-0.326053
40
2
50
118.0000017
51
208.0000017
0
ARC
8
0
10
260.3285019
20
10.2712844
40
2
50
298.0000017
51
28.0000017
0
ARC
8
0
10
250.4695991
20
28.8131838
40
2
50
28.0000017
51
118.0000017
0
ARC
8
0
10
235.3033516
20
25.2794272
40
2
50
208.0000017
51
298.0000017
0
ARC
8
0
10
223.5323353
20
38.8972711
40
2
50
28.0000017
51
118.0000017
0
ARC
8
0
10
203.8742138
20
32.9751427
40
2
50
213.999999
51
298.0000017
0
ARC
8
0
10
195.3573598
20
38.4487317
40
2
50
33.999999
51
123.999999
0
ARC
8
0
10
175.7898705
20
30.0751652
40
2
50
220.0000012
51
303.999999
0
ARC
8
0
10
171.4657229
20
29.0055883
40
2
50
40.0000012
51
130.0000012
0
ARC
8
0
10
163.7598524
20
27.7612243
40
2
50
270
51
310.0000012
0
ARC
8
0
10
90.1380028
20
27.7612243
40
2
50
229.9999988
51
270
0
ARC
8
0
10
82.4321323
20
29.0055883
40
2
50
49.9999988
51
139.9999988
0
ARC
8
0
10
78.1079847
20
30.0751652
40
2
50
236.000001
51
319.9999988
0
ARC
8
0
10
58.5404954
20
38.4487317
40
2
50
56.000001
51
146.000001
0
ARC
8
0
10
50.0236414
20
32.9751427
40
2
50
241.9999983
51
326.000001
0
ARC
8
0
10
30.3655199
20
38.8972711
40
2
50
61.9999983
51
151.9999983
0
ARC
8
0
10
18.5945036
20
25.2794272
40
2
50
241.9999983
51
331.9999983
0
ARC
8
0
10
3.4282561
20
28.8131838
40
2
50
61.9999983
51
151.9999983
0
ARC
8
0
10
-6.4306467
20
10.2712844
40
2
50
151.9999983
51
241.9999983
0
ARC
8
0
10
4.9798283
20
-0.326053
40
2
50
331.9999983
51
61.9999983
0
ARC
8
0
10
2.6197505
20
-13.2849316
40
2
50
151.9999983
51
241.9999983
0
CIRCLE
8
0
10
48.0404414
20
24.2845908
40
1.2
0
CIRCLE
8
0
10
205.8574139
20
24.2845908
40
1.2
0
CIRCLE
8
0
10
15.358255
20
8.5959077
40
1.2
0
CIRCLE
8
0
10
238.5396003
20
8.5959077
40
1.2
0
CIRCLE
8
0
10
29.4054
20
-6.5745682
40
1.2
0
CIRCLE
8
0
10
224.4924552
20
-6.5745682
40
1.2
0
CIRCLE
8
0
10
61.3903936
20
-27.2243491
40
1.2
0
CIRCLE
8
0
10
192.5074616
20
-27.2243491
40
1.2
0
CIRCLE
8
0
10
95.5224157
20
13.4526108
40
1.2
0
ARC
8
0
10
158.3754396
20
13.4526108
40
1.2
50
77.505574
51
360.4287865
0
CIRCLE
8
0
10
67.8799527
20
-64.5516837
40
1.2
0
CIRCLE
8
0
10
186.0179026
20
-64.5516837
40
1.2
0
CIRCLE
8
0
10
108.6493565
20
-30.9153568
40
1.2
0
CIRCLE
8
0
10
145.2484987
20
-30.9153568
40
1.2
0
CIRCLE
8
0
10
112.9489276
20
21.8723116
40
1.2
0
CIRCLE
8
0
10
140.9489276
20
21.8723116
40
1.2
0
CIRCLE
8
0
10
126.9489276
20
-76.1276884
40
1.2
0
CIRCLE
8
0
10
143.9489276
20
-63.1276884
40
1.2
0
CIRCLE
8
0
10
109.9489276
20
-63.1276884
40
1.2
0
CIRCLE
8
0
10
95.9489276
20
-64.0104894
40
8
0
LINE
8
0
10
1.2940885
20
18.6222403
11
13.6553548
21
12.0496385
0
LINE
8
0
10
15.007774
20
12.4631145
11
17.8246033
21
17.7608
0
LINE
8
0
10
17.4111273
20
19.1132192
11
5.049861
21
25.685821
0
LINE
8
0
10
3.6974418
20
25.272345
11
0.8806125
21
19.9746595
0
LINE
8
0
10
239.1829633
20
11.4862727
11
251.5442296
21
18.0588745
0
LINE
8
0
10
251.9577056
20
19.4112937
11
249.1408763
21
24.7089792
0
LINE
8
0
10
247.7884571
20
25.1224552
11
235.4271908
21
18.5498534
0
LINE
8
0
10
235.0137148
20
17.1974342
11
237.8305441
21
11.8997487
0
LINE
8
0
10
10.3444857
20
-4.9339757
11
22.705752
21
-11.5065775
0
LINE
8
0
10
24.0581712
20
-11.0931015
11
26.8750005
21
-5.795416
0
LINE
8
0
10
26.4615245
20
-4.4429968
11
14.1002582
21
2.129605
0
LINE
8
0
10
12.747839
20
1.716129
11
9.9310097
21
-3.5815565
0
LINE
8
0
10
230.1325661
20
-12.0699433
11
242.4938324
21
-5.4973415
0
LINE
8
0
10
242.9073084
20
-4.1449223
11
240.0904791
21
1.1527632
0
LINE
8
0
10
238.7380599
20
1.5662392
11
226.3767936
21
-5.0063626
0
LINE
8
0
10
225.9633176
20
-6.3587818
11
228.7801469
21
-11.6564673
0
LINE
8
0
10
19.287919
20
11.886176
11
31.6491853
21
5.3135742
0
LINE
8
0
10
33.0016045
20
5.7270502
11
35.8184338
21
11.0247357
0
LINE
8
0
10
35.4049578
20
12.3771549
11
23.0436915
21
18.9497567
0
LINE
8
0
10
21.6912723
20
18.5362807
11
18.874443
21
13.2385952
0
LINE
8
0
10
221.1891328
20
4.7502084
11
233.5503991
21
11.3228102
0
LINE
8
0
10
233.9638751
20
12.6752294
11
231.1470458
21
17.9729149
0
LINE
8
0
10
229.7946266
20
18.3863909
11
217.4333603
21
11.8137891
0
LINE
8
0
10
217.0198843
20
10.4613699
11
219.8367136
21
5.1636844
0
LINE
8
0
10
28.2313523
20
28.7063276
11
40.5926186
21
22.1337258
0
LINE
8
0
10
41.9450378
20
22.5472018
11
44.7618671
21
27.8448873
0
LINE
8
0
10
44.3483911
20
29.1973065
11
31.9871248
21
35.7699083
0
LINE
8
0
10
30.6347056
20
35.3564323
11
27.8178763
21
30.0587468
0
LINE
8
0
10
212.2456995
20
21.57036
11
224.6069658
21
28.1429618
0
LINE
8
0
10
225.0204418
20
29.495381
11
222.2036125
21
34.7930665
0
LINE
8
0
10
220.8511933
20
35.2065425
11
208.489927
21
28.6339407
0
LINE
8
0
10
208.076451
20
27.2815215
11
210.8932803
21
21.983836
0
LINE
8
0
10
34.0475258
20
-3.0496349
11
45.6540518
21
-10.8783356
0
LINE
8
0
10
47.0422823
20
-10.6084909
11
50.3974397
21
-5.6342655
0
LINE
8
0
10
50.127595
20
-4.246035
11
38.521069
21
3.5826657
0
LINE
8
0
10
37.1328385
20
3.312821
11
33.7776811
21
-1.6614044
0
LINE
8
0
10
207.2489583
20
-11.5493671
11
218.8554843
21
-3.7206664
0
LINE
8
0
10
219.125329
20
-2.3324359
11
215.7701715
21
2.6417894
0
LINE
8
0
10
214.381941
20
2.9116341
11
202.7754151
21
-4.9170665
0
LINE
8
0
10
202.5055704
20
-6.305297
11
205.8607278
21
-11.2795224
0
LINE
8
0
10
44.7001506
20
12.7435308
11
56.3066766
21
4.9148301
0
LINE
8
0
10
57.6949071
20
5.1846748
11
61.0500645
21
10.1589002
0
LINE
8
0
10
60.7802198
20
11.5471307
11
49.1736938
21
19.3758314
0
LINE
8
0
10
47.7854633
20
19.1059867
11
44.4303059
21
14.1317613
0
LINE
8
0
10
196.5963335
20
4.2437986
11
208.2028595
21
12.0724993
0
LINE
8
0
10
208.4727042
20
13.4607298
11
205.1175467
21
18.4349551
0
LINE
8
0
10
203.7293162
20
18.7047998
11
192.1227903
21
10.8760992
0
LINE
8
0
10
191.8529456
20
9.4878687
11
195.208103
21
4.5136433
0
LINE
8
0
10
55.3527754
20
28.5366965
11
66.9593014
21
20.7079958
0
LINE
8
0
10
68.3475319
20
20.9778405
11
71.7026893
21
25.9520659
0
LINE
8
0
10
71.4328446
20
27.3402964
11
59.8263186
21
35.1689971
0
LINE
8
0
10
58.4380881
20
34.8991524
11
55.0829307
21
29.924927
0
LINE
8
0
10
185.9437087
20
20.0369643
11
197.5502347
21
27.865665
0
LINE
8
0
10
197.8200794
20
29.2538955
11
194.4649219
21
34.2281208
0
LINE
8
0
10
193.0766914
20
34.4979655
11
181.4701655
21
26.6692649
0
LINE
8
0
10
181.2003208
20
25.2810344
11
184.5554782
21
20.306809
0
LINE
8
0
10
53.7355771
20
-9.7052335
11
64.4601994
21
-18.7042601
0
LINE
8
0
10
65.8690314
20
-18.5810033
11
69.7257571
21
-13.9847365
0
LINE
8
0
10
69.6025003
20
-12.5759045
11
58.877878
21
-3.576878
0
LINE
8
0
10
57.469046
20
-3.7001348
11
53.6123203
21
-8.2964015
0
LINE
8
0
10
188.5184025
20
-19.4756052
11
199.2430248
21
-10.4765786
0
LINE
8
0
10
199.3662816
20
-9.0677466
11
195.5095559
21
-4.4714799
0
LINE
8
0
10
194.1007239
20
-4.3482231
11
183.3761016
21
-13.3472497
0
LINE
8
0
10
183.2528448
20
-14.7560817
11
187.1095705
21
-19.3523484
0
LINE
8
0
10
65.9806811
20
4.8879131
11
76.7053034
21
-4.1111135
0
LINE
8
0
10
78.1141354
20
-3.9878567
11
81.9708611
21
0.6084101
0
LINE
8
0
10
81.8476043
20
2.0172421
11
71.122982
21
11.0162686
0
LINE
8
0
10
69.71415
20
10.8930118
11
65.8574243
21
6.2967451
0
LINE
8
0
10
176.2732985
20
-4.8824586
11
186.9979208
21
4.116568
0
LINE
8
0
10
187.1211776
20
5.5254
11
183.2644519
21
10.1216667
0
LINE
8
0
10
181.8556199
20
10.2449235
11
171.1309976
21
1.2458969
0
LINE
8
0
10
171.0077408
20
-0.1629351
11
174.8644665
21
-4.7592018
0
LINE
8
0
10
78.225785
20
19.4810598
11
88.9504073
21
10.4820332
0
LINE
8
0
10
90.3592393
20
10.60529
11
94.215965
21
15.2015568
0
LINE
8
0
10
94.0927082
20
16.6103888
11
83.3680859
21
25.6094153
0
LINE
8
0
10
81.9592539
20
25.4861585
11
78.1025282
21
20.8898918
0
LINE
8
0
10
164.0281946
20
9.7106881
11
174.7528169
21
18.7097147
0
LINE
8
0
10
174.8760737
20
20.1185467
11
171.019348
21
24.7148134
0
LINE
8
0
10
169.610516
20
24.8380702
11
158.8858937
21
15.8390436
0
LINE
8
0
10
159.575406
20
13.4615912
11
162.6193626
21
9.8339449
0
LINE
8
0
10
64.4719981
20
-26.5466041
11
75.1966204
21
-35.5456307
0
LINE
8
0
10
76.6054524
20
-35.4223739
11
80.4621781
21
-30.8261071
0
LINE
8
0
10
80.3389213
20
-29.4172751
11
69.614299
21
-20.4182486
0
LINE
8
0
10
68.205467
20
-20.5415054
11
64.3487413
21
-25.1377721
0
LINE
8
0
10
177.7819815
20
-36.3169758
11
188.5066038
21
-27.3179492
0
LINE
8
0
10
188.6298606
20
-25.9091172
11
184.7731349
21
-21.3128505
0
LINE
8
0
10
183.3643029
20
-21.1895937
11
172.6396806
21
-30.1886203
0
LINE
8
0
10
172.5164238
20
-31.5974523
11
176.3731495
21
-36.193719
0
LINE
8
0
10
76.717102
20
-11.9534575
11
87.4417243
21
-20.9524841
0
LINE
8
0
10
88.8505563
20
-20.8292273
11
92.707282
21
-16.2329605
0
LINE
8
0
10
92.5840252
20
-14.8241285
11
81.8594029
21
-5.825102
0
LINE
8
0
10
80.4505709
20
-5.9483588
11
76.5938452
21
-10.5446255
0
LINE
8
0
10
165.5368776
20
-21.7238292
11
176.2614999
21
-12.7248026
0
LINE
8
0
10
176.3847567
20
-11.3159706
11
172.528031
21
-6.7197039
0
LINE
8
0
10
171.119199
20
-6.5964471
11
160.3945767
21
-15.5954737
0
LINE
8
0
10
160.2713199
20
-17.0043057
11
164.1280456
21
-21.6005724
0
LINE
8
0
10
88.9622061
20
2.6396891
11
99.6868284
21
-6.3593375
0
LINE
8
0
10
101.0956604
20
-6.2360807
11
104.9523861
21
-1.6398139
0
LINE
8
0
10
104.8291293
20
-0.2309819
11
94.104507
21
8.7680446
0
LINE
8
0
10
92.695675
20
8.6447878
11
88.8389493
21
4.0485211
0
LINE
8
0
10
153.2917735
20
-7.1306826
11
164.0163958
21
1.868344
0
LINE
8
0
10
164.1396526
20
3.277176
11
160.2829269
21
7.8734427
0
LINE
8
0
10
158.8740949
20
7.9966995
11
148.1494726
21
-1.0023271
0
LINE
8
0
10
148.0262158
20
-2.4111591
11
151.8829415
21
-7.0074258
0
LINE
8
0
10
77.4581757
20
-40.7068193
11
88.182798
21
-49.7058459
0
LINE
8
0
10
89.59163
20
-49.5825891
11
93.4483557
21
-44.9863223
0
LINE
8
0
10
93.3250989
20
-43.5774903
11
82.6004766
21
-34.5784638
0
LINE
8
0
10
81.1916446
20
-34.7017206
11
77.3349189
21
-39.2979873
0
LINE
8
0
10
164.7958039
20
-50.477191
11
175.5204262
21
-41.4781644
0
LINE
8
0
10
175.643683
20
-40.0693324
11
171.7869573
21
-35.4730657
0
LINE
8
0
10
170.3781253
20
-35.3498089
11
159.653503
21
-44.3488355
0
LINE
8
0
10
159.5302462
20
-45.7576675
11
163.3869719
21
-50.3539342
0
LINE
8
0
10
89.7032796
20
-26.1136726
11
100.4279019
21
-35.1126992
0
LINE
8
0
10
101.8367339
20
-34.9894424
11
105.6934596
21
-30.3931756
0
LINE
8
0
10
105.5702028
20
-28.9843436
11
94.8455805
21
-19.9853171
0
LINE
8
0
10
93.4367485
20
-20.1085739
11
89.5800228
21
-24.7048406
0
LINE
8
0
10
152.5507
20
-35.8840443
11
163.2753223
21
-26.8850177
0
LINE
8
0
10
163.3985791
20
-25.4761857
11
159.5418534
21
-20.879919
0
LINE
8
0
10
158.1330214
20
-20.7566622
11
147.4083991
21
-29.7556888
0
LINE
8
0
10
147.2851423
20
-31.1645208
11
151.141868
21
-35.7607875
0
LINE
8
0
10
101.9483836
20
-11.520526
11
112.6730059
21
-20.5195526
0
LINE
8
0
10
114.0818379
20
-20.3962958
11
117.9385636
21
-15.800029
0
LINE
8
0
10
117.8153068
20
-14.391197
11
107.0906845
21
-5.3921705
0
LINE
8
0
10
105.6818525
20
-5.5154273
11
101.8251268
21
-10.111694
0
LINE
8
0
10
140.305596
20
-21.2908977
11
151.0302183
21
-12.2918711
0
LINE
8
0
10
151.1534751
20
-10.8830391
11
147.2967494
21
-6.2867724
0
LINE
8
0
10
145.8879174
20
-6.1635156
11
135.1632951
21
-15.1625422
0
LINE
8
0
10
135.0400383
20
-16.5713742
11
138.896764
21
-21.1676409
0
LINE
8
0
10
59.010084
20
-48.5805341
11
67.0401542
21
-60.0486628
0
LINE
8
0
10
68.4328826
20
-60.2942384
11
73.3477949
21
-56.8527797
0
LINE
8
0
10
73.5933705
20
-55.4600513
11
65.5633004
21
-43.9919226
0
LINE
8
0
10
64.170572
20
-43.746347
11
59.2556596
21
-47.1878057
0
LINE
8
0
10
186.1694093
20
-61.0316453
11
194.1994795
21
-49.5635166
0
LINE
8
0
10
193.9539039
20
-48.1707882
11
189.0389915
21
-44.7293295
0
LINE
8
0
10
187.6462631
20
-44.9749051
11
179.6161929
21
-56.4430338
0
LINE
8
0
10
179.8617685
20
-57.8357622
11
184.7766809
21
-61.2772209
0
LINE
8
0
10
70.6707096
20
-66.6978154
11
75.4589917
21
-79.8535121
0
LINE
8
0
10
76.7407044
20
-80.4511846
11
82.3788602
21
-78.3990637
0
LINE
8
0
10
82.9765327
20
-77.117351
11
78.1882506
21
-63.9616543
0
LINE
8
0
10
76.9065379
20
-63.3639818
11
71.2683821
21
-65.4161027
0
LINE
8
0
10
178.0284394
20
-80.9811433
11
182.8167215
21
-67.8254466
0
LINE
8
0
10
182.219049
20
-66.5437339
11
176.5808932
21
-64.4916129
0
LINE
8
0
10
175.2991805
20
-65.0892854
11
170.5108984
21
-78.2449822
0
LINE
8
0
10
171.1085709
20
-79.5266949
11
176.7467267
21
-81.5788158
0
ARC
8
0
10
46.2132447
20
-10.049298
40
1
50
236.000001
51
326.000001
0
ARC
8
0
10
49.5684021
20
-5.0750726
40
1
50
326.000001
51
56.000001
0
ARC
8
0
10
37.9618761
20
2.7536281
40
1
50
56.000001
51
146.000001
0
ARC
8
0
10
34.6067187
20
-2.2205973
40
1
50
146.000001
51
236.000001
0
ARC
8
0
10
56.8658695
20
5.7438677
40
1
50
236.000001
51
326.000001
0
ARC
8
0
10
60.2210269
20
10.7180931
40
1
50
326.000001
51
56.000001
0
ARC
8
0
10
48.6145009
20
18.5467938
40
1
50
56.000001
51
146.000001
0
ARC
8
0
10
45.2593435
20
13.5725684
40
1
50
146.000001
51
236.000001
0
ARC
8
0
10
67.5184943
20
21.5370334
40
1
50
236.000001
51
326.000001
0
ARC
8
0
10
70.8736517
20
26.5112588
40
1
50
326.000001
51
56.000001
0
ARC
8
0
10
59.2671257
20
34.3399595
40
1
50
56.000001
51
146.000001
0
ARC
8
0
10
55.9119683
20
29.3657341
40
1
50
146.000001
51
236.000001
0
ARC
8
0
10
181.8770289
20
-67.4834265
40
1
50
340.0000019
51
70.0000019
0
ARC
8
0
10
176.2388731
20
-65.4313055
40
1
50
70.0000019
51
160.0000019
0
ARC
8
0
10
171.450591
20
-78.5870023
40
1
50
160.0000019
51
250.0000019
0
ARC
8
0
10
177.0887468
20
-80.6391232
40
1
50
250.0000019
51
340.0000019
0
ARC
8
0
10
193.3803275
20
-48.9899402
40
1
50
325.0000003
51
55.0000003
0
ARC
8
0
10
188.4654151
20
-45.5484815
40
1
50
55.0000003
51
145.0000003
0
ARC
8
0
10
180.4353449
20
-57.0166102
40
1
50
145.0000003
51
235.0000003
0
ARC
8
0
10
185.3502573
20
-60.4580689
40
1
50
235.0000003
51
325.0000003
0
ARC
8
0
10
88.8255856
20
-48.9398015
40
1
50
229.9999988
51
319.9999988
0
ARC
8
0
10
92.6823113
20
-44.3435347
40
1
50
319.9999988
51
49.9999988
0
ARC
8
0
10
81.957689
20
-35.3445082
40
1
50
49.9999988
51
139.9999988
0
ARC
8
0
10
78.1009633
20
-39.9407749
40
1
50
139.9999988
51
229.9999988
0
ARC
8
0
10
65.102987
20
-17.9382157
40
1
50
229.9999988
51
319.9999988
0
ARC
8
0
10
68.9597127
20
-13.3419489
40
1
50
319.9999988
51
49.9999988
0
ARC
8
0
10
58.2350904
20
-4.3429224
40
1
50
49.9999988
51
139.9999988
0
ARC
8
0
10
54.3783647
20
-8.9391891
40
1
50
139.9999988
51
229.9999988
0
ARC
8
0
10
77.348091
20
-3.3450691
40
1
50
229.9999988
51
319.9999988
0
ARC
8
0
10
81.2048167
20
1.2511977
40
1
50
319.9999988
51
49.9999988
0
ARC
8
0
10
70.4801944
20
10.2502242
40
1
50
49.9999988
51
139.9999988
0
ARC
8
0
10
66.6234687
20
5.6539575
40
1
50
139.9999988
51
229.9999988
0
ARC
8
0
10
89.5931949
20
11.2480776
40
1
50
229.9999988
51
319.9999988
0
ARC
8
0
10
93.4499206
20
15.8443444
40
1
50
319.9999988
51
49.9999988
0
ARC
8
0
10
82.7252983
20
24.8433709
40
1
50
49.9999988
51
139.9999988
0
ARC
8
0
10
78.8685726
20
20.2471042
40
1
50
139.9999988
51
229.9999988
0
ARC
8
0
10
88.0845119
20
-20.1864397
40
1
50
229.9999988
51
319.9999988
0
ARC
8
0
10
91.9412376
20
-15.5901729
40
1
50
319.9999988
51
49.9999988
0
ARC
8
0
10
81.2166153
20
-6.5911464
40
1
50
49.9999988
51
139.9999988
0
ARC
8
0
10
77.3598896
20
-11.1874131
40
1
50
139.9999988
51
229.9999988
0
ARC
8
0
10
100.329616
20
-5.5932931
40
1
50
229.9999988
51
319.9999988
0
ARC
8
0
10
104.1863417
20
-0.9970263
40
1
50
319.9999988
51
49.9999988
0
ARC
8
0
10
93.4617194
20
8.0020002
40
1
50
49.9999988
51
139.9999988
0
ARC
8
0
10
89.6049937
20
3.4057335
40
1
50
139.9999988
51
229.9999988
0
ARC
8
0
10
101.0706895
20
-34.3466548
40
1
50
229.9999988
51
319.9999988
0
ARC
8
0
10
104.9274152
20
-29.750388
40
1
50
319.9999988
51
49.9999988
0
ARC
8
0
10
94.2027929
20
-20.7513615
40
1
50
49.9999988
51
139.9999988
0
ARC
8
0
10
90.3460672
20
-25.3476282
40
1
50
139.9999988
51
229.9999988
0
ARC
8
0
10
113.3157935
20
-19.7535082
40
1
50
229.9999988
51
319.9999988
0
ARC
8
0
10
117.1725192
20
-15.1572414
40
1
50
319.9999988
51
49.9999988
0
ARC
8
0
10
106.4478969
20
-6.1582149
40
1
50
49.9999988
51
139.9999988
0
ARC
8
0
10
102.5911712
20
-10.7544816
40
1
50
139.9999988
51
229.9999988
0
ARC
8
0
10
75.839408
20
-34.7795863
40
1
50
229.9999988
51
319.9999988
0
ARC
8
0
10
79.6961337
20
-30.1833195
40
1
50
319.9999988
51
49.9999988
0
ARC
8
0
10
68.9715114
20
-21.184293
40
1
50
49.9999988
51
139.9999988
0
ARC
8
0
10
65.1147857
20
-25.7805597
40
1
50
139.9999988
51
229.9999988
0
ARC
8
0
10
198.6002372
20
-9.7105342
40
1
50
310.0000012
51
40.0000012
0
ARC
8
0
10
194.7435115
20
-5.1142675
40
1
50
40.0000012
51
130.0000012
0
ARC
8
0
10
184.0188892
20
-14.1132941
40
1
50
130.0000012
51
220.0000012
0
ARC
8
0
10
187.8756149
20
-18.7095608
40
1
50
220.0000012
51
310.0000012
0
ARC
8
0
10
186.3551332
20
4.8826124
40
1
50
310.0000012
51
40.0000012
0
ARC
8
0
10
182.4984075
20
9.4788791
40
1
50
40.0000012
51
130.0000012
0
ARC
8
0
10
171.7737852
20
0.4798525
40
1
50
130.0000012
51
220.0000012
0
ARC
8
0
10
175.6305109
20
-4.1164142
40
1
50
220.0000012
51
310.0000012
0
ARC
8
0
10
174.1100293
20
19.4757591
40
1
50
310.0000012
51
40.0000012
0
ARC
8
0
10
170.2533036
20
24.0720258
40
1
50
40.0000012
51
130.0000012
0
ARC
8
0
10
159.5286813
20
15.0729992
40
1
50
130.0000012
51
206.6672324
0
ARC
8
0
10
163.385407
20
10.4767325
40
1
50
220.0000012
51
310.0000012
0
ARC
8
0
10
187.8638162
20
-26.5519048
40
1
50
310.0000012
51
40.0000012
0
ARC
8
0
10
184.0070905
20
-21.9556381
40
1
50
40.0000012
51
130.0000012
0
ARC
8
0
10
173.2824682
20
-30.9546647
40
1
50
130.0000012
51
220.0000012
0
ARC
8
0
10
177.1391939
20
-35.5509314
40
1
50
220.0000012
51
310.0000012
0
ARC
8
0
10
175.6187123
20
-11.9587582
40
1
50
310.0000012
51
40.0000012
0
ARC
8
0
10
171.7619866
20
-7.3624915
40
1
50
40.0000012
51
130.0000012
0
ARC
8
0
10
161.0373643
20
-16.3615181
40
1
50
130.0000012
51
220.0000012
0
ARC
8
0
10
164.89409
20
-20.9577848
40
1
50
220.0000012
51
310.0000012
0
ARC
8
0
10
163.3736082
20
2.6343884
40
1
50
310.0000012
51
40.0000012
0
ARC
8
0
10
159.5168825
20
7.2306551
40
1
50
40.0000012
51
130.0000012
0
ARC
8
0
10
148.7922602
20
-1.7683715
40
1
50
130.0000012
51
220.0000012
0
ARC
8
0
10
152.6489859
20
-6.3646382
40
1
50
220.0000012
51
310.0000012
0
ARC
8
0
10
174.8776386
20
-40.71212
40
1
50
310.0000012
51
40.0000012
0
ARC
8
0
10
171.0209129
20
-36.1158533
40
1
50
40.0000012
51
130.0000012
0
ARC
8
0
10
160.2962906
20
-45.1148799
40
1
50
130.0000012
51
220.0000012
0
ARC
8
0
10
164.1530163
20
-49.7111466
40
1
50
220.0000012
51
310.0000012
0
ARC
8
0
10
162.6325347
20
-26.1189733
40
1
50
310.0000012
51
40.0000012
0
ARC
8
0
10
158.775809
20
-21.5227066
40
1
50
40.0000012
51
130.0000012
0
ARC
8
0
10
148.0511867
20
-30.5217332
40
1
50
130.0000012
51
220.0000012
0
ARC
8
0
10
151.9079124
20
-35.1179999
40
1
50
220.0000012
51
310.0000012
0
ARC
8
0
10
150.3874307
20
-11.5258267
40
1
50
310.0000012
51
40.0000012
0
ARC
8
0
10
146.530705
20
-6.92956
40
1
50
40.0000012
51
130.0000012
0
ARC
8
0
10
135.8060827
20
-15.9285866
40
1
50
130.0000012
51
220.0000012
0
ARC
8
0
10
139.6628084
20
-20.5248533
40
1
50
220.0000012
51
310.0000012
0
ARC
8
0
10
76.3986843
20
-79.511492
40
1
50
199.9999981
51
289.9999981
0
ARC
8
0
10
82.0368401
20
-77.4593711
40
1
50
289.9999981
51
19.9999981
0
ARC
8
0
10
77.248558
20
-64.3036744
40
1
50
19.9999981
51
109.9999981
0
ARC
8
0
10
71.6104022
20
-66.3557953
40
1
50
109.9999981
51
199.9999981
0
ARC
8
0
10
67.8593062
20
-59.4750864
40
1
50
214.9999997
51
304.9999997
0
ARC
8
0
10
72.7742185
20
-56.0336277
40
1
50
304.9999997
51
34.9999997
0
ARC
8
0
10
64.7441484
20
-44.565499
40
1
50
34.9999997
51
124.9999997
0
ARC
8
0
10
59.829236
20
-48.0069577
40
1
50
124.9999997
51
214.9999997
0
ARC
8
0
10
218.2962914
20
-2.8916288
40
1
50
303.999999
51
33.999999
0
ARC
8
0
10
214.9411339
20
2.0825965
40
1
50
33.999999
51
123.999999
0
ARC
8
0
10
203.334608
20
-5.7461041
40
1
50
123.999999
51
213.999999
0
ARC
8
0
10
206.6897654
20
-10.7203295
40
1
50
213.999999
51
303.999999
0
ARC
8
0
10
207.6436666
20
12.9015369
40
1
50
303.999999
51
33.999999
0
ARC
8
0
10
204.2885091
20
17.8757622
40
1
50
33.999999
51
123.999999
0
ARC
8
0
10
192.6819832
20
10.0470616
40
1
50
123.999999
51
213.999999
0
ARC
8
0
10
196.0371406
20
5.0728362
40
1
50
213.999999
51
303.999999
0
ARC
8
0
10
196.9910418
20
28.6947026
40
1
50
303.999999
51
33.999999
0
ARC
8
0
10
193.6358843
20
33.6689279
40
1
50
33.999999
51
123.999999
0
ARC
8
0
10
182.0293584
20
25.8402273
40
1
50
123.999999
51
213.999999
0
ARC
8
0
10
185.3845158
20
20.8660019
40
1
50
213.999999
51
303.999999
0
ARC
8
0
10
233.0809275
20
12.2057578
40
1
50
298.0000017
51
28.0000017
0
ARC
8
0
10
230.2640982
20
17.5034433
40
1
50
28.0000017
51
118.0000017
0
ARC
8
0
10
217.9028319
20
10.9308415
40
1
50
118.0000017
51
208.0000017
0
ARC
8
0
10
220.7196612
20
5.633156
40
1
50
208.0000017
51
298.0000017
0
ARC
8
0
10
224.1374942
20
29.0259094
40
1
50
298.0000017
51
28.0000017
0
ARC
8
0
10
221.3206649
20
34.3235949
40
1
50
28.0000017
51
118.0000017
0
ARC
8
0
10
208.9593986
20
27.7509931
40
1
50
118.0000017
51
208.0000017
0
ARC
8
0
10
211.7762279
20
22.4533076
40
1
50
208.0000017
51
298.0000017
0
ARC
8
0
10
251.074758
20
18.9418221
40
1
50
298.0000017
51
28.0000017
0
ARC
8
0
10
248.2579287
20
24.2395076
40
1
50
28.0000017
51
118.0000017
0
ARC
8
0
10
235.8966624
20
17.6669058
40
1
50
118.0000017
51
208.0000017
0
ARC
8
0
10
238.7134917
20
12.3692203
40
1
50
208.0000017
51
298.0000017
0
ARC
8
0
10
242.0243608
20
-4.6143939
40
1
50
298.0000017
51
28.0000017
0
ARC
8
0
10
239.2075315
20
0.6832916
40
1
50
28.0000017
51
118.0000017
0
ARC
8
0
10
226.8462652
20
-5.8893102
40
1
50
118.0000017
51
208.0000017
0
ARC
8
0
10
229.6630945
20
-11.1869957
40
1
50
208.0000017
51
298.0000017
0
ARC
8
0
10
41.0620902
20
23.0166734
40
1
50
241.9999983
51
331.9999983
0
ARC
8
0
10
43.8789195
20
28.3143589
40
1
50
331.9999983
51
61.9999983
0
ARC
8
0
10
31.5176532
20
34.8869607
40
1
50
61.9999983
51
151.9999983
0
ARC
8
0
10
28.7008239
20
29.5892752
40
1
50
151.9999983
51
241.9999983
0
ARC
8
0
10
14.1248264
20
12.9325861
40
1
50
241.9999983
51
331.9999983
0
ARC
8
0
10
16.9416557
20
18.2302716
40
1
50
331.9999983
51
61.9999983
0
ARC
8
0
10
4.5803894
20
24.8028734
40
1
50
61.9999983
51
151.9999983
0
ARC
8
0
10
1.7635601
20
19.5051879
40
1
50
151.9999983
51
241.9999983
0
ARC
8
0
10
23.1752236
20
-10.6236299
40
1
50
241.9999983
51
331.9999983
0
ARC
8
0
10
25.9920529
20
-5.3259444
40
1
50
331.9999983
51
61.9999983
0
ARC
8
0
10
13.6307866
20
1.2466574
40
1
50
61.9999983
51
151.9999983
0
ARC
8
0
10
10.8139573
20
-4.0510281
40
1
50
151.9999983
51
241.9999983
0
ARC
8
0
10
32.1186569
20
6.1965218
40
1
50
241.9999983
51
331.9999983
0
ARC
8
0
10
34.9354862
20
11.4942073
40
1
50
331.9999983
51
61.9999983
0
ARC
8
0
10
22.5742199
20
18.0668091
40
1
50
61.9999983
51
151.9999983
0
ARC
8
0
10
19.7573906
20
12.7691236
40
1
50
151.9999983
51
241.9999983
0
LINE
8
0
10
118.9489276
20
-7.6276884
11
134.9489276
21
-7.6276884
0
ARC
8
0
10
134.9489276
20
-6.6276884
40
1
50
270
51
360
0
LINE
8
0
10
135.9489276
20
-6.6276884
11
135.9489276
21
22.3723116
0
ARC
8
0
10
134.9489276
20
22.3723116
40
1
50
0
51
90
0
LINE
8
0
10
134.9489276
20
23.3723116
11
118.9489276
21
23.3723116
0
ARC
8
0
10
118.9489276
20
22.3723116
40
1
50
90
51
180
0
LINE
8
0
10
117.9489276
20
22.3723116
11
117.9489276
21
-6.6276884
0
ARC
8
0
10
118.9489276
20
-6.6276884
40
1
50
180
51
270
0
ENDSEC
0
EOF