0
SECTION
2
HEADER
9
$INSUNITS
70
4
0
ENDSEC
0
SECTION
2
TABLES
0
TABLE
2
LTYPE
0
LTYPE
72
65
70
64
2
CONTINUOUS
3
______
73
0
40
0
0
ENDTAB
0
TABLE
2
LAYER
0
ENDTAB
0
ENDSEC
0
SECTION
2
ENTITIES
0
LINE
8
0
10
1.6808073
20
-15.0508268
11
20.2227068
21
-24.9097295
0
LINE
8
0
10
22.9275451
20
-24.0827776
11
26.9147427
21
-16.5839494
0
LINE
8
0
10
0.8538554
20
-12.3459885
11
6.7457235
21
-1.2649962
0
LINE
8
0
10
20.3603988
20
24.340484
11
28.5996247
21
39.8362143
0
LINE
8
0
10
31.304463
20
40.6631663
11
49.0846982
21
31.2092476
0
LINE
8
0
10
29.7990236
20
-15.8648174
11
41.7835982
21
-23.948515
0
LINE
8
0
10
44.5600591
20
-23.4088257
11
45.2271472
21
-22.4198269
0
LINE
8
0
10
59.6588812
20
40.1068068
11
76.989599
21
28.4170901
0
LINE
8
0
10
56.8824203
20
39.5671175
11
51.6817165
21
31.856757
0
LINE
8
0
10
48.1707976
20
-22.0061238
11
54.6867782
21
-27.4736808
0
LINE
8
0
10
88.8524276
20
26.2291354
11
83.7177075
21
30.5376772
0
LINE
8
0
10
80.9000434
20
30.2911635
11
79.6400736
21
28.78959
0
LINE
8
0
10
53.8942303
20
-34.6410978
11
59.3943227
21
-39.2562232
0
LINE
8
0
10
54.9332918
20
-30.2913449
11
53.6477167
21
-31.8234337
0
LINE
8
0
10
46.6977358
20
-53.6614869
11
57.779249
21
-69.4875279
0
LINE
8
0
10
50.5156673
20
-48.5465932
11
59.2559003
21
-42.4266162
0
LINE
8
0
10
50.2879331
20
-48.7060544
11
47.188887
21
-50.8760299
0
LINE
8
0
10
71.0312071
20
-87.9565783
11
70.8166249
21
-88.1068304
0
LINE
8
0
10
70.8166249
20
-88.1068304
11
70.776365
21
-88.0493333
0
LINE
8
0
10
58.0203301
20
-69.9506406
11
64.6452701
21
-88.1525137
0
LINE
8
0
10
67.2086955
20
-89.3478587
11
70.776365
21
-88.0493333
0
LINE
8
0
10
71.0312071
20
-87.9565783
11
88.4902396
21
-81.6020102
0
LINE
8
0
10
50.2879331
20
-48.7060544
11
50.2633231
21
-48.638439
0
LINE
8
0
10
50.2633231
20
-48.638439
11
50.5156673
21
-48.5465932
0
LINE
8
0
10
-7.3695899
20
8.5053892
11
5.9187715
21
1.4398422
0
LINE
8
0
10
4.3671992
20
30.5790789
11
17.6555604
21
23.513532
0
LINE
8
0
10
1.6623609
20
29.752127
11
-8.1965418
21
11.2102275
0
LINE
8
0
10
233.6751484
20
-24.9097295
11
252.2170479
21
-15.0508268
0
LINE
8
0
10
247.1521317
20
-1.2649962
11
253.0439998
21
-12.3459885
0
LINE
8
0
10
226.9831125
20
-16.5839494
11
230.9703101
21
-24.0827776
0
LINE
8
0
10
225.2982305
20
39.8362143
11
233.5374564
21
24.340484
0
LINE
8
0
10
204.813157
20
31.2092476
11
222.5933922
21
40.6631663
0
LINE
8
0
10
212.114257
20
-23.948515
11
224.0988316
21
-15.8648174
0
LINE
8
0
10
208.670708
20
-22.4198269
11
209.3377961
21
-23.4088257
0
LINE
8
0
10
202.2161387
20
31.856757
11
197.0154349
21
39.5671175
0
LINE
8
0
10
176.9082562
20
28.4170901
11
194.238974
21
40.1068068
0
LINE
8
0
10
199.211077
20
-27.4736808
11
205.7270576
21
-22.0061238
0
LINE
8
0
10
174.2577816
20
28.78959
11
172.9978118
21
30.2911635
0
LINE
8
0
10
170.1801477
20
30.5376772
11
165.0454276
21
26.2291354
0
LINE
8
0
10
194.5035325
20
-39.2562232
11
200.0036249
21
-34.6410978
0
LINE
8
0
10
200.2501385
20
-31.8234337
11
198.9645634
21
-30.2913449
0
LINE
8
0
10
196.1186062
20
-69.4875279
11
207.2001194
21
-53.6614869
0
LINE
8
0
10
206.7089682
20
-50.8760299
11
203.6099221
21
-48.7060544
0
LINE
8
0
10
194.6419549
20
-42.4266162
11
203.3821879
21
-48.5465932
0
LINE
8
0
10
183.1214902
20
-88.0493333
11
183.0812303
21
-88.1068304
0
LINE
8
0
10
183.0812303
20
-88.1068304
11
182.8666481
21
-87.9565783
0
LINE
8
0
10
189.2525851
20
-88.1525137
11
195.8775251
21
-69.9506406
0
LINE
8
0
10
165.4076156
20
-81.6020102
11
182.8666481
21
-87.9565783
0
LINE
8
0
10
183.1214902
20
-88.0493333
11
186.6891597
21
-89.3478587
0
LINE
8
0
10
203.3821879
20
-48.5465932
11
203.6345321
21
-48.638439
0
LINE
8
0
10
203.6345321
20
-48.638439
11
203.6099221
21
-48.7060544
0
LINE
8
0
10
247.9790837
20
1.4398422
11
261.2674451
21
8.5053892
0
LINE
8
0
10
262.094397
20
11.2102275
11
252.2354943
21
29.752127
0
LINE
8
0
10
236.2422948
20
23.513532
11
249.530656
21
30.5790789
0
LINE
8
0
10
90.1380028
20
25.7612243
11
114.9489276
21
25.7612243
0
LINE
8
0
10
138.9489276
20
25.7612243
11
163.7598524
21
25.7612243
0
LINE
8
0
10
164.7235753
20
-81.4813954
11
89.1742799
21
-81.4813954
0
LINE
8
0
10
116.4489276
20
-65.8818807
11
137.4489276
21
-65.8818807
0
LINE
8
0
10
139.4489276
20
-63.8818807
11
139.4489276
21
-31.5674165
0
LINE
8
0
10
114.4489276
20
-63.8818807
11
114.4489276
21
-31.5674165
0
LINE
8
0
10
136.9489276
20
-8.4245652
11
136.9489276
21
23.7612243
0
LINE
8
0
10
116.9489276
20
23.7612243
11
116.9489276
21
-8.4245652
0
LINE
8
0
10
131.9489276
20
-20.5405317
11
131.9489276
21
-15.301053
0
LINE
8
0
10
121.9489276
20
-15.301053
11
121.9489276
21
-20.5405317
0
LINE
8
0
10
114.8694181
20
-30.3405711
11
121.5284371
21
-21.7673771
0
LINE
8
0
10
132.3694181
20
-21.7673771
11
139.0284371
21
-30.3405711
0
LINE
8
0
10
117.4962198
20
-9.799207
11
121.4016354
21
-13.9264112
0
LINE
8
0
10
132.4962198
20
-13.9264112
11
136.4016354
21
-9.799207
0
ARC
8
0
10
21.1616499
20
-23.1438344
40
2
50
241.9999983
51
331.9999983
0
ARC
8
0
10
28.6806379
20
-17.5228926
40
2
50
56.000001
51
151.9999983
0
ARC
8
0
10
42.901984
20
-22.2904399
40
2
50
236.000001
51
326.000001
0
ARC
8
0
10
46.8852223
20
-23.5382127
40
2
50
49.9999988
51
146.000001
0
ARC
8
0
10
53.4012029
20
-29.0057696
40
2
50
319.9999988
51
49.9999988
0
ARC
8
0
10
55.1798055
20
-33.1090089
40
2
50
139.9999988
51
229.9999988
0
ARC
8
0
10
58.1087474
20
-40.7883121
40
2
50
304.9999997
51
49.9999988
0
ARC
8
0
10
48.3360399
20
-52.514334
40
2
50
124.9999997
51
214.9999997
0
ARC
8
0
10
56.1409448
20
-70.6346808
40
2
50
19.9999981
51
34.9999997
0
ARC
8
0
10
66.5246553
20
-87.4684735
40
2
50
199.9999981
51
289.9999981
0
ARC
8
0
10
89.1742799
20
-83.4813954
40
2
50
90
51
109.9999981
0
ARC
8
0
10
164.7235753
20
-83.4813954
40
2
50
70.0000019
51
90
0
ARC
8
0
10
187.3731999
20
-87.4684735
40
2
50
250.0000019
51
340.0000019
0
ARC
8
0
10
197.7569104
20
-70.6346808
40
2
50
145.0000003
51
160.0000019
0
ARC
8
0
10
205.5618153
20
-52.514334
40
2
50
325.0000003
51
55.0000003
0
ARC
8
0
10
195.7891078
20
-40.7883121
40
2
50
130.0000012
51
235.0000003
0
ARC
8
0
10
198.7180497
20
-33.1090089
40
2
50
310.0000012
51
40.0000012
0
ARC
8
0
10
200.4966523
20
-29.0057696
40
2
50
130.0000012
51
220.0000012
0
ARC
8
0
10
207.0126329
20
-23.5382127
40
2
50
33.999999
51
130.0000012
0
ARC
8
0
10
210.9958712
20
-22.2904399
40
2
50
213.999999
51
303.999999
0
ARC
8
0
10
225.2172173
20
-17.5228926
40
2
50
28.0000017
51
123.999999
0
ARC
8
0
10
232.7362053
20
-23.1438344
40
2
50
208.0000017
51
298.0000017
0
ARC
8
0
10
251.2781047
20
-13.2849316
40
2
50
298.0000017
51
28.0000017
0
ARC
8
0
10
248.9180269
20
-0.326053
40
2
50
118.0000017
51
208.0000017
0
ARC
8
0
10
260.3285019
20
10.2712844
40
2
50
298.0000017
51
28.0000017
0
ARC
8
0
10
250.4695991
20
28.8131838
40
2
50
28.0000017
51
118.0000017
0
ARC
8
0
10
235.3033516
20
25.2794272
40
2
50
208.0000017
51
298.0000017
0
ARC
8
0
10
223.5323353
20
38.8972711
40
2
50
28.0000017
51
118.0000017
0
ARC
8
0
10
203.8742138
20
32.9751427
40
2
50
213.999999
51
298.0000017
0
ARC
8
0
10
195.3573598
20
38.4487317
40
2
50
33.999999
51
123.999999
0
ARC
8
0
10
175.7898705
20
30.0751652
40
2
50
220.0000012
51
303.999999
0
ARC
8
0
10
171.4657229
20
29.0055883
40
2
50
40.0000012
51
130.0000012
0
ARC
8
0
10
163.7598524
20
27.7612243
40
2
50
270
51
310.0000012
0
ARC
8
0
10
138.9489276
20
23.7612243
40
2
50
90
51
180
0
ARC
8
0
10
134.9489276
20
-8.4245652
40
2
50
316.5815929
51
0
0
ARC
8
0
10
133.9489276
20
-15.301053
40
2
50
136.5815929
51
180
0
ARC
8
0
10
133.9489276
20
-20.5405317
40
2
50
180
51
217.8373989
0
ARC
8
0
10
137.4489276
20
-31.5674165
40
2
50
0
51
37.8373989
0
ARC
8
0
10
137.4489276
20
-63.8818807
40
2
50
270
51
0
0
ARC
8
0
10
116.4489276
20
-63.8818807
40
2
50
180
51
270
0
ARC
8
0
10
116.4489276
20
-31.5674165
40
2
50
142.1626011
51
180
0
ARC
8
0
10
119.9489276
20
-20.5405317
40
2
50
322.1626011
51
0
0
ARC
8
0
10
119.9489276
20
-15.301053
40
2
50
0
51
43.4184071
0
ARC
8
0
10
118.9489276
20
-8.4245652
40
2
50
180
51
223.4184071
0
ARC
8
0
10
114.9489276
20
23.7612243
40
2
50
0
51
90
0
ARC
8
0
10
90.1380028
20
27.7612243
40
2
50
229.9999988
51
270
0
ARC
8
0
10
82.4321323
20
29.0055883
40
2
50
49.9999988
51
139.9999988
0
ARC
8
0
10
78.1079847
20
30.0751652
40
2
50
236.000001
51
319.9999988
0
ARC
8
0
10
58.5404954
20
38.4487317
40
2
50
56.000001
51
146.000001
0
ARC
8
0
10
50.0236414
20
32.9751427
40
2
50
241.9999983
51
326.000001
0
ARC
8
0
10
30.3655199
20
38.8972711
40
2
50
61.9999983
51
151.9999983
0
ARC
8
0
10
18.5945036
20
25.2794272
40
2
50
241.9999983
51
331.9999983
0
ARC
8
0
10
3.4282561
20
28.8131838
40
2
50
61.9999983
51
151.9999983
0
ARC
8
0
10
-6.4306467
20
10.2712844
40
2
50
151.9999983
51
241.9999983
0
ARC
8
0
10
4.9798283
20
-0.326053
40
2
50
331.9999983
51
61.9999983
0
ARC
8
0
10
2.6197505
20
-13.2849316
40
2
50
151.9999983
51
241.9999983
0
LINE
8
0
10
7.7946913
20
-12.0725013
11
19.27301
21
-18.1756316
0
LINE
8
0
10
19.9492196
20
-17.9688936
11
26.0523499
21
-6.4905749
0
LINE
8
0
10
25.8456119
20
-5.8143653
11
14.3672932
21
0.288765
0
LINE
8
0
10
13.6910836
20
0.082027
11
7.5879533
21
-11.3962917
0
LINE
8
0
10
16.7381246
20
4.7476504
11
28.2164433
21
-1.3554799
0
LINE
8
0
10
28.8926529
20
-1.1487419
11
34.9957832
21
10.3295768
0
LINE
8
0
10
34.7890452
20
11.0057864
11
23.3107265
21
17.1089167
0
LINE
8
0
10
22.6345169
20
16.9021787
11
16.5313866
21
5.42386
0
LINE
8
0
10
25.6815579
20
21.567802
11
37.1598766
21
15.4646717
0
LINE
8
0
10
37.8360862
20
15.6714097
11
43.9392165
21
27.1497284
0
LINE
8
0
10
43.7324785
20
27.825938
11
32.2541598
21
33.9290683
0
LINE
8
0
10
31.5779502
20
33.7223303
11
25.4748199
21
22.2440116
0
LINE
8
0
10
30.7655204
20
-9.882529
11
41.5430088
21
-17.1520366
0
LINE
8
0
10
42.2371241
20
-17.0171143
11
49.5066317
21
-6.2396259
0
LINE
8
0
10
49.3717094
20
-5.5455106
11
38.594221
21
1.723997
0
LINE
8
0
10
37.9001057
20
1.5890747
11
30.6305981
21
-9.1884137
0
LINE
8
0
10
41.4181452
20
5.9106367
11
52.1956336
21
-1.3588709
0
LINE
8
0
10
52.8897489
20
-1.2239486
11
60.1592565
21
9.5535398
0
LINE
8
0
10
60.0243342
20
10.2476551
11
49.2468458
21
17.5171627
0
LINE
8
0
10
48.5527305
20
17.3822404
11
41.2832229
21
6.604752
0
LINE
8
0
10
52.07077
20
21.7038024
11
62.8482584
21
14.4342948
0
LINE
8
0
10
63.5423737
20
14.5692171
11
70.8118813
21
25.3467055
0
LINE
8
0
10
70.676959
20
26.0408208
11
59.8994706
21
33.3103284
0
LINE
8
0
10
59.2053553
20
33.1754061
11
51.9358477
21
22.3979177
0
LINE
8
0
10
49.7573189
20
-16.1576332
11
59.7158967
21
-24.5138722
0
LINE
8
0
10
60.4203127
20
-24.4522438
11
68.7765517
21
-14.493666
0
LINE
8
0
10
68.7149233
20
-13.78925
11
58.7563455
21
-5.433011
0
LINE
8
0
10
58.0519295
20
-5.4946394
11
49.6956905
21
-15.4532172
0
LINE
8
0
10
62.0024229
20
-1.5644866
11
71.9610007
21
-9.9207256
0
LINE
8
0
10
72.6654167
20
-9.8590972
11
81.0216557
21
0.0994806
0
LINE
8
0
10
80.9600273
20
0.8038966
11
71.0014495
21
9.1601356
0
LINE
8
0
10
70.2970335
20
9.0985072
11
61.9407945
21
-0.8600706
0
LINE
8
0
10
74.2475268
20
13.0286601
11
84.2061046
21
4.6724211
0
LINE
8
0
10
84.9105206
20
4.7340495
11
93.2667596
21
14.6926273
0
LINE
8
0
10
93.2051312
20
15.3970433
11
83.2465534
21
23.7532823
0
LINE
8
0
10
82.5421374
20
23.6916539
11
74.1858984
21
13.7330761
0
LINE
8
0
10
60.4937399
20
-32.9990038
11
70.4523177
21
-41.3552428
0
LINE
8
0
10
71.1567337
20
-41.2936144
11
79.5129727
21
-31.3350366
0
LINE
8
0
10
79.4513443
20
-30.6306206
11
69.4927665
21
-22.2743816
0
LINE
8
0
10
68.7883505
20
-22.33601
11
60.4321115
21
-32.2945878
0
LINE
8
0
10
72.7388438
20
-18.4058572
11
82.6974216
21
-26.7620962
0
LINE
8
0
10
83.4018376
20
-26.7004678
11
91.7580766
21
-16.74189
0
LINE
8
0
10
91.6964482
20
-16.037474
11
81.7378704
21
-7.681235
0
LINE
8
0
10
81.0334544
20
-7.7428634
11
72.6772154
21
-17.7014412
0
LINE
8
0
10
84.9839479
20
-3.8127106
11
94.9425257
21
-12.1689496
0
LINE
8
0
10
95.6469417
20
-12.1073212
11
104.0031807
21
-2.1487434
0
LINE
8
0
10
103.9415523
20
-1.4443274
11
93.9829745
21
6.9119116
0
LINE
8
0
10
93.2785585
20
6.8502832
11
84.9223195
21
-3.1082946
0
LINE
8
0
10
73.4799175
20
-47.159219
11
83.4384953
21
-55.515458
0
LINE
8
0
10
84.1429113
20
-55.4538296
11
92.4991503
21
-45.4952518
0
LINE
8
0
10
92.4375219
20
-44.7908358
11
82.4789441
21
-36.4345968
0
LINE
8
0
10
81.7745281
20
-36.4962252
11
73.4182891
21
-46.454803
0
LINE
8
0
10
85.7250214
20
-32.5660723
11
95.6835992
21
-40.9223113
0
LINE
8
0
10
96.3880152
20
-40.8606829
11
104.7442542
21
-30.9021051
0
LINE
8
0
10
104.6826258
20
-30.1976891
11
94.724048
21
-21.8414501
0
LINE
8
0
10
94.019632
20
-21.9030785
11
85.663393
21
-31.8616563
0
LINE
8
0
10
97.9701254
20
-17.9729257
11
107.9287032
21
-26.3291647
0
LINE
8
0
10
108.6331192
20
-26.2675363
11
116.9893582
21
-16.3089585
0
LINE
8
0
10
116.9277298
20
-15.6045425
11
106.969152
21
-7.2483035
0
LINE
8
0
10
106.264736
20
-7.3099319
11
97.908497
21
-17.2685097
0
LINE
8
0
10
53.4973777
20
-53.7834246
11
60.9538714
21
-64.4324013
0
LINE
8
0
10
61.6502356
20
-64.5551891
11
72.2992123
21
-57.0986954
0
LINE
8
0
10
72.4220001
20
-56.4023312
11
64.9655064
21
-45.7533545
0
LINE
8
0
10
64.2691422
20
-45.6305667
11
53.6201655
21
-53.0870604
0
LINE
8
0
10
63.9992372
20
-70.2966284
11
68.445499
21
-82.5126324
0
LINE
8
0
10
69.0863554
20
-82.8114686
11
81.3023594
21
-78.3652068
0
LINE
8
0
10
81.6011956
20
-77.7243504
11
77.1549338
21
-65.5083464
0
LINE
8
0
10
76.5140774
20
-65.2095102
11
64.2980734
21
-69.655772
0
LINE
8
0
10
-1.2557059
20
11.4837147
11
10.2226128
21
5.3805844
0
LINE
8
0
10
10.8988224
20
5.5873224
11
17.0019527
21
17.0656411
0
LINE
8
0
10
16.7952147
20
17.7418507
11
5.316896
21
23.844981
0
LINE
8
0
10
4.6406864
20
23.638243
11
-1.4624439
21
12.1599243
0
LINE
8
0
10
234.6248452
20
-18.1756316
11
246.1031639
21
-12.0725013
0
LINE
8
0
10
246.3099019
20
-11.3962917
11
240.2067716
21
0.082027
0
LINE
8
0
10
239.530562
20
0.288765
11
228.0522433
21
-5.8143653
0
LINE
8
0
10
227.8455053
20
-6.4905749
11
233.9486356
21
-17.9688936
0
LINE
8
0
10
225.6814119
20
-1.3554799
11
237.1597306
21
4.7476504
0
LINE
8
0
10
237.3664686
20
5.42386
11
231.2633383
21
16.9021787
0
LINE
8
0
10
230.5871287
20
17.1089167
11
219.10881
21
11.0057864
0
LINE
8
0
10
218.902072
20
10.3295768
11
225.0052023
21
-1.1487419
0
LINE
8
0
10
216.7379786
20
15.4646717
11
228.2162973
21
21.567802
0
LINE
8
0
10
228.4230353
20
22.2440116
11
222.319905
21
33.7223303
0
LINE
8
0
10
221.6436954
20
33.9290683
11
210.1653767
21
27.825938
0
LINE
8
0
10
209.9586387
20
27.1497284
11
216.061769
21
15.6714097
0
LINE
8
0
10
212.3548464
20
-17.1520366
11
223.1323348
21
-9.882529
0
LINE
8
0
10
223.2672571
20
-9.1884137
11
215.9977495
21
1.5890747
0
LINE
8
0
10
215.3036342
20
1.723997
11
204.5261458
21
-5.5455106
0
LINE
8
0
10
204.3912235
20
-6.2396259
11
211.6607311
21
-17.0171143
0
LINE
8
0
10
201.7022216
20
-1.3588709
11
212.47971
21
5.9106367
0
LINE
8
0
10
212.6146323
20
6.604752
11
205.3451247
21
17.3822404
0
LINE
8
0
10
204.6510094
20
17.5171627
11
193.873521
21
10.2476551
0
LINE
8
0
10
193.7385987
20
9.5535398
11
201.0081063
21
-1.2239486
0
LINE
8
0
10
191.0495968
20
14.4342948
11
201.8270852
21
21.7038024
0
LINE
8
0
10
201.9620075
20
22.3979177
11
194.6924999
21
33.1754061
0
LINE
8
0
10
193.9983846
20
33.3103284
11
183.2208962
21
26.0408208
0
LINE
8
0
10
183.0859739
20
25.3467055
11
190.3554815
21
14.5692171
0
LINE
8
0
10
194.1819585
20
-24.5138722
11
204.1405363
21
-16.1576332
0
LINE
8
0
10
204.2021647
20
-15.4532172
11
195.8459257
21
-5.4946394
0
LINE
8
0
10
195.1415097
20
-5.433011
11
185.1829319
21
-13.78925
0
LINE
8
0
10
185.1213035
20
-14.493666
11
193.4775425
21
-24.4522438
0
LINE
8
0
10
181.9368545
20
-9.9207256
11
191.8954323
21
-1.5644866
0
LINE
8
0
10
191.9570607
20
-0.8600706
11
183.6008217
21
9.0985072
0
LINE
8
0
10
182.8964057
20
9.1601356
11
172.9378279
21
0.8038966
0
LINE
8
0
10
172.8761995
20
0.0994806
11
181.2324385
21
-9.8590972
0
LINE
8
0
10
169.6917506
20
4.6724211
11
179.6503284
21
13.0286601
0
LINE
8
0
10
179.7119568
20
13.7330761
11
171.3557178
21
23.6916539
0
LINE
8
0
10
170.6513018
20
23.7532823
11
160.692724
21
15.3970433
0
LINE
8
0
10
160.6310956
20
14.6926273
11
168.9873346
21
4.7340495
0
LINE
8
0
10
183.4455375
20
-41.3552428
11
193.4041153
21
-32.9990038
0
LINE
8
0
10
193.4657437
20
-32.2945878
11
185.1095047
21
-22.33601
0
LINE
8
0
10
184.4050887
20
-22.2743816
11
174.4465109
21
-30.6306206
0
LINE
8
0
10
174.3848825
20
-31.3350366
11
182.7411215
21
-41.2936144
0
LINE
8
0
10
171.2004336
20
-26.7620962
11
181.1590114
21
-18.4058572
0
LINE
8
0
10
181.2206398
20
-17.7014412
11
172.8644008
21
-7.7428634
0
LINE
8
0
10
172.1599848
20
-7.681235
11
162.201407
21
-16.037474
0
LINE
8
0
10
162.1397786
20
-16.74189
11
170.4960176
21
-26.7004678
0
LINE
8
0
10
158.9553295
20
-12.1689496
11
168.9139073
21
-3.8127106
0
LINE
8
0
10
168.9755357
20
-3.1082946
11
160.6192967
21
6.8502832
0
LINE
8
0
10
159.9148807
20
6.9119116
11
149.9563029
21
-1.4443274
0
LINE
8
0
10
149.8946745
20
-2.1487434
11
158.2509135
21
-12.1073212
0
LINE
8
0
10
170.4593599
20
-55.515458
11
180.4179377
21
-47.159219
0
LINE
8
0
10
180.4795661
20
-46.454803
11
172.1233271
21
-36.4962252
0
LINE
8
0
10
171.4189111
20
-36.4345968
11
161.4603333
21
-44.7908358
0
LINE
8
0
10
161.3987049
20
-45.4952518
11
169.7549439
21
-55.4538296
0
LINE
8
0
10
158.214256
20
-40.9223113
11
168.1728338
21
-32.5660723
0
LINE
8
0
10
168.2344622
20
-31.8616563
11
159.8782232
21
-21.9030785
0
LINE
8
0
10
159.1738072
20
-21.8414501
11
149.2152294
21
-30.1976891
0
LINE
8
0
10
149.153601
20
-30.9021051
11
157.50984
21
-40.8606829
0
LINE
8
0
10
145.969152
20
-26.3291647
11
155.9277298
21
-17.9729257
0
LINE
8
0
10
155.9893582
20
-17.2685097
11
147.6331192
21
-7.3099319
0
LINE
8
0
10
146.9287032
20
-7.2483035
11
136.9701254
21
-15.6045425
0
LINE
8
0
10
136.908497
20
-16.3089585
11
145.264736
21
-26.2675363
0
LINE
8
0
10
192.9439838
20
-64.4324013
11
200.4004775
21
-53.7834246
0
LINE
8
0
10
200.2776897
20
-53.0870604
11
189.628713
21
-45.6305667
0
LINE
8
0
10
188.9323488
20
-45.7533545
11
181.4758551
21
-56.4023312
0
LINE
8
0
10
181.5986429
20
-57.0986954
11
192.2476196
21
-64.5551891
0
LINE
8
0
10
185.4523562
20
-82.5126324
11
189.898618
21
-70.2966284
0
LINE
8
0
10
189.5997818
20
-69.655772
11
177.3837778
21
-65.2095102
0
LINE
8
0
10
176.7429214
20
-65.5083464
11
172.2966596
21
-77.7243504
0
LINE
8
0
10
172.5954958
20
-78.3652068
11
184.8114998
21
-82.8114686
0
LINE
8
0
10
243.6752424
20
5.3805844
11
255.1535611
21
11.4837147
0
LINE
8
0
10
255.3602991
20
12.1599243
11
249.2571688
21
23.638243
0
LINE
8
0
10
248.5809592
20
23.844981
11
237.1026405
21
17.7418507
0
LINE
8
0
10
236.8959025
20
17.0656411
11
242.9990328
21
5.5873224
0
ARC
8
0
10
61.3634474
20
-64.1456131
40
0.5
50
214.9999997
51
304.9999997
0
ARC
8
0
10
72.0124241
20
-56.6891194
40
0.5
50
304.9999997
51
34.9999997
0
ARC
8
0
10
64.5559304
20
-46.0401427
40
0.5
50
34.9999997
51
124.9999997
0
ARC
8
0
10
53.9069537
20
-53.4966364
40
0.5
50
124.9999997
51
214.9999997
0
ARC
8
0
10
199.9909015
20
-53.4966364
40
0.5
50
325.0000003
51
55.0000003
0
ARC
8
0
10
189.3419248
20
-46.0401427
40
0.5
50
55.0000003
51
145.0000003
0
ARC
8
0
10
181.8854311
20
-56.6891194
40
0.5
50
145.0000003
51
235.0000003
0
ARC
8
0
10
192.5344078
20
-64.1456131
40
0.5
50
235.0000003
51
325.0000003
0
ARC
8
0
10
83.7598891
20
-55.1324358
40
0.5
50
229.9999988
51
319.9999988
0
ARC
8
0
10
92.1161281
20
-45.173858
40
0.5
50
319.9999988
51
49.9999988
0
ARC
8
0
10
82.1575503
20
-36.817619
40
0.5
50
49.9999988
51
139.9999988
0
ARC
8
0
10
73.8013113
20
-46.7761968
40
0.5
50
139.9999988
51
229.9999988
0
ARC
8
0
10
96.004993
20
-40.5392891
40
0.5
50
229.9999988
51
319.9999988
0
ARC
8
0
10
104.361232
20
-30.5807113
40
0.5
50
319.9999988
51
49.9999988
0
ARC
8
0
10
94.4026542
20
-22.2244723
40
0.5
50
49.9999988
51
139.9999988
0
ARC
8
0
10
86.0464152
20
-32.1830501
40
0.5
50
139.9999988
51
229.9999988
0
ARC
8
0
10
72.2823945
20
-9.5377034
40
0.5
50
229.9999988
51
319.9999988
0
ARC
8
0
10
80.6386335
20
0.4208744
40
0.5
50
319.9999988
51
49.9999988
0
ARC
8
0
10
70.6800557
20
8.7771134
40
0.5
50
49.9999988
51
139.9999988
0
ARC
8
0
10
62.3238167
20
-1.1814644
40
0.5
50
139.9999988
51
229.9999988
0
ARC
8
0
10
84.5274984
20
5.0554433
40
0.5
50
229.9999988
51
319.9999988
0
ARC
8
0
10
92.8837374
20
15.0140211
40
0.5
50
319.9999988
51
49.9999988
0
ARC
8
0
10
82.9251596
20
23.3702601
40
0.5
50
49.9999988
51
139.9999988
0
ARC
8
0
10
74.5689206
20
13.4116823
40
0.5
50
139.9999988
51
229.9999988
0
ARC
8
0
10
83.0188154
20
-26.379074
40
0.5
50
229.9999988
51
319.9999988
0
ARC
8
0
10
91.3750544
20
-16.4204962
40
0.5
50
319.9999988
51
49.9999988
0
ARC
8
0
10
81.4164766
20
-8.0642572
40
0.5
50
49.9999988
51
139.9999988
0
ARC
8
0
10
73.0602376
20
-18.022835
40
0.5
50
139.9999988
51
229.9999988
0
ARC
8
0
10
95.2639195
20
-11.7859274
40
0.5
50
229.9999988
51
319.9999988
0
ARC
8
0
10
103.6201585
20
-1.8273496
40
0.5
50
319.9999988
51
49.9999988
0
ARC
8
0
10
93.6615807
20
6.5288894
40
0.5
50
49.9999988
51
139.9999988
0
ARC
8
0
10
85.3053417
20
-3.4296884
40
0.5
50
139.9999988
51
229.9999988
0
ARC
8
0
10
108.250097
20
-25.9461425
40
0.5
50
229.9999988
51
319.9999988
0
ARC
8
0
10
116.606336
20
-15.9875647
40
0.5
50
319.9999988
51
49.9999988
0
ARC
8
0
10
106.6477582
20
-7.6313257
40
0.5
50
49.9999988
51
139.9999988
0
ARC
8
0
10
98.2915192
20
-17.5899035
40
0.5
50
139.9999988
51
229.9999988
0
ARC
8
0
10
70.7737115
20
-40.9722206
40
0.5
50
229.9999988
51
319.9999988
0
ARC
8
0
10
79.1299505
20
-31.0136428
40
0.5
50
319.9999988
51
49.9999988
0
ARC
8
0
10
69.1713727
20
-22.6574038
40
0.5
50
49.9999988
51
139.9999988
0
ARC
8
0
10
60.8151337
20
-32.6159816
40
0.5
50
139.9999988
51
229.9999988
0
ARC
8
0
10
60.0372905
20
-24.13085
40
0.5
50
229.9999988
51
319.9999988
0
ARC
8
0
10
68.3935295
20
-14.1722722
40
0.5
50
319.9999988
51
49.9999988
0
ARC
8
0
10
58.4349517
20
-5.8160332
40
0.5
50
49.9999988
51
139.9999988
0
ARC
8
0
10
50.0787127
20
-15.774611
40
0.5
50
139.9999988
51
229.9999988
0
ARC
8
0
10
180.0965439
20
-46.7761968
40
0.5
50
310.0000012
51
40.0000012
0
ARC
8
0
10
171.7403049
20
-36.817619
40
0.5
50
40.0000012
51
130.0000012
0
ARC
8
0
10
161.7817271
20
-45.173858
40
0.5
50
130.0000012
51
220.0000012
0
ARC
8
0
10
170.1379661
20
-55.1324358
40
0.5
50
220.0000012
51
310.0000012
0
ARC
8
0
10
167.85144
20
-32.1830501
40
0.5
50
310.0000012
51
40.0000012
0
ARC
8
0
10
159.495201
20
-22.2244723
40
0.5
50
40.0000012
51
130.0000012
0
ARC
8
0
10
149.5366232
20
-30.5807113
40
0.5
50
130.0000012
51
220.0000012
0
ARC
8
0
10
157.8928622
20
-40.5392891
40
0.5
50
220.0000012
51
310.0000012
0
ARC
8
0
10
203.8191425
20
-15.774611
40
0.5
50
310.0000012
51
40.0000012
0
ARC
8
0
10
195.4629035
20
-5.8160332
40
0.5
50
40.0000012
51
130.0000012
0
ARC
8
0
10
185.5043257
20
-14.1722722
40
0.5
50
130.0000012
51
220.0000012
0
ARC
8
0
10
193.8605647
20
-24.13085
40
0.5
50
220.0000012
51
310.0000012
0
ARC
8
0
10
191.5740385
20
-1.1814644
40
0.5
50
310.0000012
51
40.0000012
0
ARC
8
0
10
183.2177995
20
8.7771134
40
0.5
50
40.0000012
51
130.0000012
0
ARC
8
0
10
173.2592217
20
0.4208744
40
0.5
50
130.0000012
51
220.0000012
0
ARC
8
0
10
181.6154607
20
-9.5377034
40
0.5
50
220.0000012
51
310.0000012
0
ARC
8
0
10
180.8376176
20
-18.022835
40
0.5
50
310.0000012
51
40.0000012
0
ARC
8
0
10
172.4813786
20
-8.0642572
40
0.5
50
40.0000012
51
130.0000012
0
ARC
8
0
10
162.5228008
20
-16.4204962
40
0.5
50
130.0000012
51
220.0000012
0
ARC
8
0
10
170.8790398
20
-26.379074
40
0.5
50
220.0000012
51
310.0000012
0
ARC
8
0
10
168.5925135
20
-3.4296884
40
0.5
50
310.0000012
51
40.0000012
0
ARC
8
0
10
160.2362745
20
6.5288894
40
0.5
50
40.0000012
51
130.0000012
0
ARC
8
0
10
150.2776967
20
-1.8273496
40
0.5
50
130.0000012
51
220.0000012
0
ARC
8
0
10
158.6339357
20
-11.7859274
40
0.5
50
220.0000012
51
310.0000012
0
ARC
8
0
10
155.606336
20
-17.5899035
40
0.5
50
310.0000012
51
40.0000012
0
ARC
8
0
10
147.250097
20
-7.6313257
40
0.5
50
40.0000012
51
130.0000012
0
ARC
8
0
10
137.2915192
20
-15.9875647
40
0.5
50
130.0000012
51
220.0000012
0
ARC
8
0
10
145.6477582
20
-25.9461425
40
0.5
50
220.0000012
51
310.0000012
0
ARC
8
0
10
179.3289346
20
13.4116823
40
0.5
50
310.0000012
51
40.0000012
0
ARC
8
0
10
170.9726956
20
23.3702601
40
0.5
50
40.0000012
51
130.0000012
0
ARC
8
0
10
161.0141178
20
15.0140211
40
0.5
50
130.0000012
51
220.0000012
0
ARC
8
0
10
169.3703568
20
5.0554433
40
0.5
50
220.0000012
51
310.0000012
0
ARC
8
0
10
193.0827215
20
-32.6159816
40
0.5
50
310.0000012
51
40.0000012
0
ARC
8
0
10
184.7264825
20
-22.6574038
40
0.5
50
40.0000012
51
130.0000012
0
ARC
8
0
10
174.7679047
20
-31.0136428
40
0.5
50
130.0000012
51
220.0000012
0
ARC
8
0
10
183.1241437
20
-40.9722206
40
0.5
50
220.0000012
51
310.0000012
0
ARC
8
0
10
227.9815615
20
22.0092758
40
0.5
50
298.0000017
51
28.0000017
0
ARC
8
0
10
221.8784312
20
33.4875945
40
0.5
50
28.0000017
51
118.0000017
0
ARC
8
0
10
210.4001125
20
27.3844642
40
0.5
50
118.0000017
51
208.0000017
0
ARC
8
0
10
216.5032428
20
15.9061455
40
0.5
50
208.0000017
51
298.0000017
0
ARC
8
0
10
254.9188253
20
11.9251885
40
0.5
50
298.0000017
51
28.0000017
0
ARC
8
0
10
248.815695
20
23.4035072
40
0.5
50
28.0000017
51
118.0000017
0
ARC
8
0
10
237.3373763
20
17.3003769
40
0.5
50
118.0000017
51
208.0000017
0
ARC
8
0
10
243.4405066
20
5.8220582
40
0.5
50
208.0000017
51
298.0000017
0
ARC
8
0
10
245.8684281
20
-11.6310275
40
0.5
50
298.0000017
51
28.0000017
0
ARC
8
0
10
239.7652978
20
-0.1527088
40
0.5
50
28.0000017
51
118.0000017
0
ARC
8
0
10
228.2869791
20
-6.2558391
40
0.5
50
118.0000017
51
208.0000017
0
ARC
8
0
10
234.3901094
20
-17.7341578
40
0.5
50
208.0000017
51
298.0000017
0
ARC
8
0
10
236.9249948
20
5.1891242
40
0.5
50
298.0000017
51
28.0000017
0
ARC
8
0
10
230.8218645
20
16.6674429
40
0.5
50
28.0000017
51
118.0000017
0
ARC
8
0
10
219.3435458
20
10.5643126
40
0.5
50
118.0000017
51
208.0000017
0
ARC
8
0
10
225.4466761
20
-0.9140061
40
0.5
50
208.0000017
51
298.0000017
0
ARC
8
0
10
10.4573486
20
5.8220582
40
0.5
50
241.9999983
51
331.9999983
0
ARC
8
0
10
16.5604789
20
17.3003769
40
0.5
50
331.9999983
51
61.9999983
0
ARC
8
0
10
5.0821602
20
23.4035072
40
0.5
50
61.9999983
51
151.9999983
0
ARC
8
0
10
-1.0209701
20
11.9251885
40
0.5
50
151.9999983
51
241.9999983
0
ARC
8
0
10
19.5077458
20
-17.7341578
40
0.5
50
241.9999983
51
331.9999983
0
ARC
8
0
10
25.6108761
20
-6.2558391
40
0.5
50
331.9999983
51
61.9999983
0
ARC
8
0
10
14.1325574
20
-0.1527088
40
0.5
50
61.9999983
51
151.9999983
0
ARC
8
0
10
8.0294271
20
-11.6310275
40
0.5
50
151.9999983
51
241.9999983
0
ARC
8
0
10
28.4511791
20
-0.9140061
40
0.5
50
241.9999983
51
331.9999983
0
ARC
8
0
10
34.5543094
20
10.5643126
40
0.5
50
331.9999983
51
61.9999983
0
ARC
8
0
10
23.0759907
20
16.6674429
40
0.5
50
61.9999983
51
151.9999983
0
ARC
8
0
10
16.9728604
20
5.1891242
40
0.5
50
151.9999983
51
241.9999983
0
ARC
8
0
10
37.3946124
20
15.9061455
40
0.5
50
241.9999983
51
331.9999983
0
ARC
8
0
10
43.4977427
20
27.3844642
40
0.5
50
331.9999983
51
61.9999983
0
ARC
8
0
10
32.019424
20
33.4875945
40
0.5
50
61.9999983
51
151.9999983
0
ARC
8
0
10
25.9162937
20
22.0092758
40
0.5
50
151.9999983
51
241.9999983
0
ARC
8
0
10
222.8527383
20
-9.4680102
40
0.5
50
303.999999
51
33.999999
0
ARC
8
0
10
215.5832307
20
1.3094782
40
0.5
50
33.999999
51
123.999999
0
ARC
8
0
10
204.8057423
20
-5.9600294
40
0.5
50
123.999999
51
213.999999
0
ARC
8
0
10
212.0752499
20
-16.7375178
40
0.5
50
213.999999
51
303.999999
0
ARC
8
0
10
212.2001135
20
6.3251555
40
0.5
50
303.999999
51
33.999999
0
ARC
8
0
10
204.9306059
20
17.1026439
40
0.5
50
33.999999
51
123.999999
0
ARC
8
0
10
194.1531175
20
9.8331363
40
0.5
50
123.999999
51
213.999999
0
ARC
8
0
10
201.4226251
20
-0.9443521
40
0.5
50
213.999999
51
303.999999
0
ARC
8
0
10
201.5474887
20
22.1183212
40
0.5
50
303.999999
51
33.999999
0
ARC
8
0
10
194.2779811
20
32.8958096
40
0.5
50
33.999999
51
123.999999
0
ARC
8
0
10
183.5004927
20
25.626302
40
0.5
50
123.999999
51
213.999999
0
ARC
8
0
10
190.7700003
20
14.8488136
40
0.5
50
213.999999
51
303.999999
0
ARC
8
0
10
63.1278549
20
14.8488136
40
0.5
50
236.000001
51
326.000001
0
ARC
8
0
10
70.3973625
20
25.626302
40
0.5
50
326.000001
51
56.000001
0
ARC
8
0
10
59.6198741
20
32.8958096
40
0.5
50
56.000001
51
146.000001
0
ARC
8
0
10
52.3503665
20
22.1183212
40
0.5
50
146.000001
51
236.000001
0
ARC
8
0
10
41.8226053
20
-16.7375178
40
0.5
50
236.000001
51
326.000001
0
ARC
8
0
10
49.0921129
20
-5.9600294
40
0.5
50
326.000001
51
56.000001
0
ARC
8
0
10
38.3146245
20
1.3094782
40
0.5
50
56.000001
51
146.000001
0
ARC
8
0
10
31.0451169
20
-9.4680102
40
0.5
50
146.000001
51
236.000001
0
ARC
8
0
10
52.4752301
20
-0.9443521
40
0.5
50
236.000001
51
326.000001
0
ARC
8
0
10
59.7447377
20
9.8331363
40
0.5
50
326.000001
51
56.000001
0
ARC
8
0
10
48.9672493
20
17.1026439
40
0.5
50
56.000001
51
146.000001
0
ARC
8
0
10
41.6977417
20
6.3251555
40
0.5
50
146.000001
51
236.000001
0
ARC
8
0
10
68.9153453
20
-82.3416223
40
0.5
50
199.9999981
51
289.9999981
0
ARC
8
0
10
81.1313493
20
-77.8953605
40
0.5
50
289.9999981
51
19.9999981
0
ARC
8
0
10
76.6850875
20
-65.6793565
40
0.5
50
19.9999981
51
109.9999981
0
ARC
8
0
10
64.4690835
20
-70.1256183
40
0.5
50
109.9999981
51
199.9999981
0
ARC
8
0
10
189.4287717
20
-70.1256183
40
0.5
50
340.0000019
51
70.0000019
0
ARC
8
0
10
177.2127677
20
-65.6793565
40
0.5
50
70.0000019
51
160.0000019
0
ARC
8
0
10
172.7665059
20
-77.8953605
40
0.5
50
160.0000019
51
250.0000019
0
ARC
8
0
10
184.9825099
20
-82.3416223
40
0.5
50
250.0000019
51
340.0000019
0
CIRCLE
8
0
10
48.0404414
20
24.2845908
40
1.2
0
CIRCLE
8
0
10
205.8574139
20
24.2845908
40
1.2
0
CIRCLE
8
0
10
15.358255
20
8.5959077
40
1.2
0
CIRCLE
8
0
10
238.5396003
20
8.5959077
40
1.2
0
CIRCLE
8
0
10
29.4054
20
-6.5745682
40
1.2
0
CIRCLE
8
0
10
224.4924552
20
-6.5745682
40
1.2
0
CIRCLE
8
0
10
61.3903936
20
-27.2243491
40
1.2
0
CIRCLE
8
0
10
192.5074616
20
-27.2243491
40
1.2
0
CIRCLE
8
0
10
95.5224157
20
13.4526108
40
1.2
0
CIRCLE
8
0
10
158.3754396
20
13.4526108
40
1.2
0
CIRCLE
8
0
10
67.8799527
20
-64.5516837
40
1.2
0
CIRCLE
8
0
10
186.0179026
20
-64.5516837
40
1.2
0
CIRCLE
8
0
10
108.6493565
20
-30.9153568
40
1.2
0
CIRCLE
8
0
10
145.2484987
20
-30.9153568
40
1.2
0
CIRCLE
8
0
10
112.9489276
20
21.8723116
40
1.2
0
CIRCLE
8
0
10
140.9489276
20
21.8723116
40
1.2
0
CIRCLE
8
0
10
126.9489276
20
-76.1276884
40
1.2
0
CIRCLE
8
0
10
143.9489276
20
-63.1276884
40
1.2
0
CIRCLE
8
0
10
109.9489276
20
-63.1276884
40
1.2
0
CIRCLE
8
0
10
95.9489276
20
-64.0104894
40
8
0
ENDSEC
0
EOF