0
SECTION
2
HEADER
9
$INSUNITS
70
4
0
ENDSEC
0
SECTION
2
TABLES
0
TABLE
2
LTYPE
0
LTYPE
72
65
70
64
2
CONTINUOUS
3
______
73
0
40
0
0
ENDTAB
0
TABLE
2
LAYER
0
ENDTAB
0
ENDSEC
0
SECTION
2
ENTITIES
0
LINE
8
0
10
108.9489276
20
-65.8818807
11
144.9489276
21
-65.8818807
0
LINE
8
0
10
139.4489276
20
-58.3818807
11
139.4489276
21
-31.5674165
0
LINE
8
0
10
114.4489276
20
-58.3818807
11
114.4489276
21
-31.5674165
0
LINE
8
0
10
136.9489276
20
-8.4245652
11
136.9489276
21
17.0791459
0
LINE
8
0
10
111.9489276
20
25.7791459
11
141.9489276
21
25.7791459
0
LINE
8
0
10
116.9489276
20
17.0791459
11
116.9489276
21
-8.4245652
0
LINE
8
0
10
131.9489276
20
-20.5405317
11
131.9489276
21
-15.301053
0
LINE
8
0
10
121.9489276
20
-15.301053
11
121.9489276
21
-20.5405317
0
LINE
8
0
10
114.8694181
20
-30.3405711
11
121.5284371
21
-21.7673771
0
LINE
8
0
10
132.3694181
20
-21.7673771
11
139.0284371
21
-30.3405711
0
LINE
8
0
10
117.4962198
20
-9.799207
11
121.4016354
21
-13.9264112
0
LINE
8
0
10
132.4962198
20
-13.9264112
11
136.4016354
21
-9.799207
0
LINE
8
0
10
146.9489276
20
-63.8818807
11
146.9489276
21
-62.3818807
0
LINE
8
0
10
144.9489276
20
-60.3818807
11
141.4489276
21
-60.3818807
0
LINE
8
0
10
112.4489276
20
-60.3818807
11
108.9489276
21
-60.3818807
0
LINE
8
0
10
106.9489276
20
-62.3818807
11
106.9489276
21
-63.8818807
0
LINE
8
0
10
111.9489276
20
19.0791459
11
114.9489276
21
19.0791459
0
LINE
8
0
10
138.9489276
20
19.0791459
11
141.9489276
21
19.0791459
0
LINE
8
0
10
143.9489276
20
21.0791459
11
143.9489276
21
23.7791459
0
LINE
8
0
10
109.9489276
20
23.7791459
11
109.9489276
21
21.0791459
0
ARC
8
0
10
144.9489276
20
-63.8818807
40
2
50
270
51
0
0
ARC
8
0
10
144.9489276
20
-62.3818807
40
2
50
0
51
90
0
ARC
8
0
10
141.4489276
20
-58.3818807
40
2
50
180
51
270
0
ARC
8
0
10
137.4489276
20
-31.5674165
40
2
50
0
51
37.8373989
0
ARC
8
0
10
133.9489276
20
-20.5405317
40
2
50
180
51
217.8373989
0
ARC
8
0
10
133.9489276
20
-15.301053
40
2
50
136.5815929
51
180
0
ARC
8
0
10
134.9489276
20
-8.4245652
40
2
50
316.5815929
51
0
0
ARC
8
0
10
138.9489276
20
17.0791459
40
2
50
90
51
180
0
ARC
8
0
10
141.9489276
20
21.0791459
40
2
50
270
51
0
0
ARC
8
0
10
141.9489276
20
23.7791459
40
2
50
0
51
90
0
ARC
8
0
10
111.9489276
20
23.7791459
40
2
50
90
51
180
0
ARC
8
0
10
111.9489276
20
21.0791459
40
2
50
180
51
270
0
ARC
8
0
10
114.9489276
20
17.0791459
40
2
50
0
51
90
0
ARC
8
0
10
118.9489276
20
-8.4245652
40
2
50
180
51
223.4184071
0
ARC
8
0
10
119.9489276
20
-15.301053
40
2
50
0
51
43.4184071
0
ARC
8
0
10
119.9489276
20
-20.5405317
40
2
50
322.1626011
51
0
0
ARC
8
0
10
116.4489276
20
-31.5674165
40
2
50
142.1626011
51
180
0
ARC
8
0
10
112.4489276
20
-58.3818807
40
2
50
270
51
0
0
ARC
8
0
10
108.9489276
20
-62.3818807
40
2
50
90
51
180
0
ARC
8
0
10
108.9489276
20
-63.8818807
40
2
50
180
51
270
0
CIRCLE
8
0
10
112.9489276
20
21.8723116
40
1.2
0
CIRCLE
8
0
10
140.9489276
20
21.8723116
40
1.2
0
CIRCLE
8
0
10
143.9489276
20
-63.1276884
40
1.2
0
CIRCLE
8
0
10
109.9489276
20
-63.1276884
40
1.2
0
ENDSEC
0
EOF