0
SECTION
2
HEADER
9
$INSUNITS
70
4
0
ENDSEC
0
SECTION
2
TABLES
0
TABLE
2
LTYPE
0
LTYPE
72
65
70
64
2
CONTINUOUS
3
______
73
0
40
0
0
ENDTAB
0
TABLE
2
LAYER
0
ENDTAB
0
ENDSEC
0
SECTION
2
ENTITIES
0
LINE
8
0
10
1.6808073
20
-15.0508268
11
20.2227068
21
-24.9097295
0
LINE
8
0
10
22.9275451
20
-24.0827776
11
26.9147427
21
-16.5839494
0
LINE
8
0
10
0.8538554
20
-12.3459885
11
6.7457235
21
-1.2649962
0
LINE
8
0
10
20.3603988
20
24.340484
11
28.5996247
21
39.8362143
0
LINE
8
0
10
31.304463
20
40.6631663
11
49.0846982
21
31.2092476
0
LINE
8
0
10
29.7990236
20
-15.8648174
11
41.7835982
21
-23.948515
0
LINE
8
0
10
44.5600591
20
-23.4088257
11
45.2271472
21
-22.4198269
0
LINE
8
0
10
59.6588812
20
40.1068068
11
76.989599
21
28.4170901
0
LINE
8
0
10
56.8824203
20
39.5671175
11
51.6817165
21
31.856757
0
LINE
8
0
10
48.1707976
20
-22.0061238
11
54.6867782
21
-27.4736808
0
LINE
8
0
10
88.8524276
20
26.2291354
11
83.7177075
21
30.5376772
0
LINE
8
0
10
80.9000434
20
30.2911635
11
79.6400736
21
28.78959
0
LINE
8
0
10
53.8942303
20
-34.6410978
11
59.3943227
21
-39.2562232
0
LINE
8
0
10
54.9332918
20
-30.2913449
11
53.6477167
21
-31.8234337
0
LINE
8
0
10
46.6977358
20
-53.6614869
11
57.779249
21
-69.4875279
0
LINE
8
0
10
50.5156673
20
-48.5465932
11
59.2559003
21
-42.4266162
0
LINE
8
0
10
50.2879331
20
-48.7060544
11
47.188887
21
-50.8760299
0
LINE
8
0
10
71.0312071
20
-87.9565783
11
70.8166249
21
-88.1068304
0
LINE
8
0
10
70.8166249
20
-88.1068304
11
70.776365
21
-88.0493333
0
LINE
8
0
10
58.0203301
20
-69.9506406
11
64.6452701
21
-88.1525137
0
LINE
8
0
10
67.2086955
20
-89.3478587
11
70.776365
21
-88.0493333
0
LINE
8
0
10
71.0312071
20
-87.9565783
11
88.4902396
21
-81.6020102
0
LINE
8
0
10
50.2879331
20
-48.7060544
11
50.2633231
21
-48.638439
0
LINE
8
0
10
50.2633231
20
-48.638439
11
50.5156673
21
-48.5465932
0
LINE
8
0
10
-7.3695899
20
8.5053892
11
5.9187715
21
1.4398422
0
LINE
8
0
10
4.3671992
20
30.5790789
11
17.6555604
21
23.513532
0
LINE
8
0
10
1.6623609
20
29.752127
11
-8.1965418
21
11.2102275
0
LINE
8
0
10
233.6751484
20
-24.9097295
11
252.2170479
21
-15.0508268
0
LINE
8
0
10
247.1521317
20
-1.2649962
11
253.0439998
21
-12.3459885
0
LINE
8
0
10
226.9831125
20
-16.5839494
11
230.9703101
21
-24.0827776
0
LINE
8
0
10
225.2982305
20
39.8362143
11
233.5374564
21
24.340484
0
LINE
8
0
10
204.813157
20
31.2092476
11
222.5933922
21
40.6631663
0
LINE
8
0
10
212.114257
20
-23.948515
11
224.0988316
21
-15.8648174
0
LINE
8
0
10
208.670708
20
-22.4198269
11
209.3377961
21
-23.4088257
0
LINE
8
0
10
202.2161387
20
31.856757
11
197.0154349
21
39.5671175
0
LINE
8
0
10
176.9082562
20
28.4170901
11
194.238974
21
40.1068068
0
LINE
8
0
10
199.211077
20
-27.4736808
11
205.7270576
21
-22.0061238
0
LINE
8
0
10
174.2577816
20
28.78959
11
172.9978118
21
30.2911635
0
LINE
8
0
10
170.1801477
20
30.5376772
11
165.0454276
21
26.2291354
0
LINE
8
0
10
194.5035325
20
-39.2562232
11
200.0036249
21
-34.6410978
0
LINE
8
0
10
200.2501385
20
-31.8234337
11
198.9645634
21
-30.2913449
0
LINE
8
0
10
196.1186062
20
-69.4875279
11
207.2001194
21
-53.6614869
0
LINE
8
0
10
206.7089682
20
-50.8760299
11
203.6099221
21
-48.7060544
0
LINE
8
0
10
194.6419549
20
-42.4266162
11
203.3821879
21
-48.5465932
0
LINE
8
0
10
183.1214902
20
-88.0493333
11
183.0812303
21
-88.1068304
0
LINE
8
0
10
183.0812303
20
-88.1068304
11
182.8666481
21
-87.9565783
0
LINE
8
0
10
189.2525851
20
-88.1525137
11
195.8775251
21
-69.9506406
0
LINE
8
0
10
165.4076156
20
-81.6020102
11
182.8666481
21
-87.9565783
0
LINE
8
0
10
183.1214902
20
-88.0493333
11
186.6891597
21
-89.3478587
0
LINE
8
0
10
203.3821879
20
-48.5465932
11
203.6345321
21
-48.638439
0
LINE
8
0
10
203.6345321
20
-48.638439
11
203.6099221
21
-48.7060544
0
LINE
8
0
10
247.9790837
20
1.4398422
11
261.2674451
21
8.5053892
0
LINE
8
0
10
262.094397
20
11.2102275
11
252.2354943
21
29.752127
0
LINE
8
0
10
236.2422948
20
23.513532
11
249.530656
21
30.5790789
0
LINE
8
0
10
90.1380028
20
25.7612243
11
163.7598524
21
25.7612243
0
LINE
8
0
10
164.7235753
20
-81.4813954
11
89.1742799
21
-81.4813954
0
ARC
8
0
10
21.1616499
20
-23.1438344
40
2
50
241.9999983
51
331.9999983
0
ARC
8
0
10
28.6806379
20
-17.5228926
40
2
50
56.000001
51
151.9999983
0
ARC
8
0
10
42.901984
20
-22.2904399
40
2
50
236.000001
51
326.000001
0
ARC
8
0
10
46.8852223
20
-23.5382127
40
2
50
49.9999988
51
146.000001
0
ARC
8
0
10
53.4012029
20
-29.0057696
40
2
50
319.9999988
51
49.9999988
0
ARC
8
0
10
55.1798055
20
-33.1090089
40
2
50
139.9999988
51
229.9999988
0
ARC
8
0
10
58.1087474
20
-40.7883121
40
2
50
304.9999997
51
49.9999988
0
ARC
8
0
10
48.3360399
20
-52.514334
40
2
50
124.9999997
51
214.9999997
0
ARC
8
0
10
56.1409448
20
-70.6346808
40
2
50
19.9999981
51
34.9999997
0
ARC
8
0
10
66.5246553
20
-87.4684735
40
2
50
199.9999981
51
289.9999981
0
ARC
8
0
10
89.1742799
20
-83.4813954
40
2
50
90
51
109.9999981
0
ARC
8
0
10
164.7235753
20
-83.4813954
40
2
50
70.0000019
51
90
0
ARC
8
0
10
187.3731999
20
-87.4684735
40
2
50
250.0000019
51
340.0000019
0
ARC
8
0
10
197.7569104
20
-70.6346808
40
2
50
145.0000003
51
160.0000019
0
ARC
8
0
10
205.5618153
20
-52.514334
40
2
50
325.0000003
51
55.0000003
0
ARC
8
0
10
195.7891078
20
-40.7883121
40
2
50
130.0000012
51
235.0000003
0
ARC
8
0
10
198.7180497
20
-33.1090089
40
2
50
310.0000012
51
40.0000012
0
ARC
8
0
10
200.4966523
20
-29.0057696
40
2
50
130.0000012
51
220.0000012
0
ARC
8
0
10
207.0126329
20
-23.5382127
40
2
50
33.999999
51
130.0000012
0
ARC
8
0
10
210.9958712
20
-22.2904399
40
2
50
213.999999
51
303.999999
0
ARC
8
0
10
225.2172173
20
-17.5228926
40
2
50
28.0000017
51
123.999999
0
ARC
8
0
10
232.7362053
20
-23.1438344
40
2
50
208.0000017
51
298.0000017
0
ARC
8
0
10
251.2781047
20
-13.2849316
40
2
50
298.0000017
51
28.0000017
0
ARC
8
0
10
248.9180269
20
-0.326053
40
2
50
118.0000017
51
208.0000017
0
ARC
8
0
10
260.3285019
20
10.2712844
40
2
50
298.0000017
51
28.0000017
0
ARC
8
0
10
250.4695991
20
28.8131838
40
2
50
28.0000017
51
118.0000017
0
ARC
8
0
10
235.3033516
20
25.2794272
40
2
50
208.0000017
51
298.0000017
0
ARC
8
0
10
223.5323353
20
38.8972711
40
2
50
28.0000017
51
118.0000017
0
ARC
8
0
10
203.8742138
20
32.9751427
40
2
50
213.999999
51
298.0000017
0
ARC
8
0
10
195.3573598
20
38.4487317
40
2
50
33.999999
51
123.999999
0
ARC
8
0
10
175.7898705
20
30.0751652
40
2
50
220.0000012
51
303.999999
0
ARC
8
0
10
171.4657229
20
29.0055883
40
2
50
40.0000012
51
130.0000012
0
ARC
8
0
10
163.7598524
20
27.7612243
40
2
50
270
51
310.0000012
0
ARC
8
0
10
90.1380028
20
27.7612243
40
2
50
229.9999988
51
270
0
ARC
8
0
10
82.4321323
20
29.0055883
40
2
50
49.9999988
51
139.9999988
0
ARC
8
0
10
78.1079847
20
30.0751652
40
2
50
236.000001
51
319.9999988
0
ARC
8
0
10
58.5404954
20
38.4487317
40
2
50
56.000001
51
146.000001
0
ARC
8
0
10
50.0236414
20
32.9751427
40
2
50
241.9999983
51
326.000001
0
ARC
8
0
10
30.3655199
20
38.8972711
40
2
50
61.9999983
51
151.9999983
0
ARC
8
0
10
18.5945036
20
25.2794272
40
2
50
241.9999983
51
331.9999983
0
ARC
8
0
10
3.4282561
20
28.8131838
40
2
50
61.9999983
51
151.9999983
0
ARC
8
0
10
-6.4306467
20
10.2712844
40
2
50
151.9999983
51
241.9999983
0
ARC
8
0
10
4.9798283
20
-0.326053
40
2
50
331.9999983
51
61.9999983
0
ARC
8
0
10
2.6197505
20
-13.2849316
40
2
50
151.9999983
51
241.9999983
0
CIRCLE
8
0
10
48.0404414
20
24.2845908
40
1.2
0
CIRCLE
8
0
10
205.8574139
20
24.2845908
40
1.2
0
CIRCLE
8
0
10
15.358255
20
8.5959077
40
1.2
0
CIRCLE
8
0
10
238.5396003
20
8.5959077
40
1.2
0
CIRCLE
8
0
10
29.4054
20
-6.5745682
40
1.2
0
CIRCLE
8
0
10
224.4924552
20
-6.5745682
40
1.2
0
CIRCLE
8
0
10
61.3903936
20
-27.2243491
40
1.2
0
CIRCLE
8
0
10
192.5074616
20
-27.2243491
40
1.2
0
CIRCLE
8
0
10
95.5224157
20
13.4526108
40
1.2
0
CIRCLE
8
0
10
158.3754396
20
13.4526108
40
1.2
0
CIRCLE
8
0
10
67.8799527
20
-64.5516837
40
1.2
0
CIRCLE
8
0
10
186.0179026
20
-64.5516837
40
1.2
0
CIRCLE
8
0
10
108.6493565
20
-30.9153568
40
1.2
0
CIRCLE
8
0
10
145.2484987
20
-30.9153568
40
1.2
0
CIRCLE
8
0
10
112.9489276
20
21.8723116
40
1.2
0
CIRCLE
8
0
10
140.9489276
20
21.8723116
40
1.2
0
CIRCLE
8
0
10
126.9489276
20
-76.1276884
40
1.2
0
CIRCLE
8
0
10
143.9489276
20
-63.1276884
40
1.2
0
CIRCLE
8
0
10
109.9489276
20
-63.1276884
40
1.2
0
CIRCLE
8
0
10
95.9489276
20
-64.0104894
40
8
0
ENDSEC
0
EOF